<svg xmlns="http://www.w3.org/2000/svg" xmlns:xlink="http://www.w3.org/1999/xlink" width="1942.31" height="1954.44" viewBox="0 0 1942.31 1954.44"><defs><linearGradient id="linear-gradient" x1="1638.4" y1="1908.02" x2="729.95" y2="133.19" gradientUnits="userSpaceOnUse"><stop offset="0" stop-color="#2b7a77"/><stop offset="1" stop-color="#3aaea9"/></linearGradient></defs><title>image1</title><g style="isolation:isolate"><g id="Layer_1" data-name="Layer 1"><path d="M1669.72,408.77H930.51c-189.6,12.61-188.76,221.47-188.76,221.47h0V1628.3h740.13V630.24S1485.38,420.68,1669.72,408.77Z" transform="translate(-57.57 -23.58)" style="fill:#17242a"/><rect x="632.49" y="619.28" width="8.75" height="768.16" style="fill:#3aaea9"/><path d="M1543.61,291.76H1091.9V41.44h451.71Zm-443-8.75h434.21V50.19H1100.65Z" transform="translate(-57.57 -23.58)" style="fill:#3aaea9"/><path d="M698.81,552.62H247.11V237.82h451.7Zm-442.95-8.75H690.07V246.56H255.86Z" transform="translate(-57.57 -23.58)" style="fill:#3aaea9"/><path d="M1978.16,1054.21H1526.45V803h451.71Zm-443-8.75h434.21V811.71H1535.2Z" transform="translate(-57.57 -23.58)" style="fill:#3aaea9"/><path d="M1640.16,395.22c-184.33,11.91-187.83,221.47-187.83,221.47v998.06H712.2V616.69S711.35,407.83,901,395.22Z" transform="translate(-57.57 -23.58)" style="fill:url(#linear-gradient)"/><rect x="751.81" y="632.36" width="508.37" height="44.86" style="fill:#def2f1"/><rect x="751.81" y="736.09" width="434.08" height="31.77" style="fill:#def2f1"/><rect x="751.81" y="819.97" width="218.21" height="47.19" style="fill:#def2f1"/><rect x="1034.5" y="819.97" width="225.68" height="47.19" style="fill:#def2f1"/><rect x="751.81" y="910.85" width="347.64" height="33.64" style="fill:#def2f1"/><rect x="751.81" y="994.95" width="391.68" height="18.69" style="fill:#def2f1"/><rect x="751.81" y="1079.06" width="470.99" height="18.69" style="fill:#def2f1"/><path d="M1029.23,1291.18H807.74V1185.1h221.49ZM811,1287.9H1026v-99.52H811Z" transform="translate(-57.57 -23.58)" style="fill:#def2f1"/><rect x="1024.69" y="1163.16" width="198.12" height="24.3" style="fill:#def2f1"/><rect x="1024.69" y="1214.56" width="140.42" height="24.3" style="fill:#def2f1"/><rect x="751.81" y="1331.38" width="423.57" height="18.69" style="fill:#def2f1"/><rect x="751.81" y="1415.48" width="223.11" height="18.69" style="fill:#def2f1"/><path d="M1643,957.83l-21.83-35.73a6.22,6.22,0,1,1,10.61-6.48l15.44,25.27,41-24.29a6.22,6.22,0,0,1,6.34,10.7Z" transform="translate(-57.57 -23.58)" style="fill:#3aaea9"/><path d="M1657.61,1012.93a78.5,78.5,0,1,1,78.5-78.5A78.6,78.6,0,0,1,1657.61,1012.93Zm0-145.79a67.29,67.29,0,1,0,67.29,67.29A67.36,67.36,0,0,0,1657.61,867.14Z" transform="translate(-57.57 -23.58)" style="fill:#3aaea9"/><polygon points="1223.74 116.86 1225.27 149.85 1238.37 149.24 1235.79 93.89 1179.27 96.52 1179.88 109.62 1214.05 108.03 1153.82 174.13 1091.15 117.04 1082.33 126.73 1154.68 192.65 1223.74 116.86" style="fill:#3aaea9"/><path d="M410.35,353.48a29.45,29.45,0,0,0-5.64-4.61,66.14,66.14,0,0,0-8.64-4.73,71.42,71.42,0,0,0-10.77-3.88,62.3,62.3,0,0,0-12.07-2.07l-.14,44.22,4.06.87a190.42,190.42,0,0,1,20.8,6.26,59.29,59.29,0,0,1,15.68,8.39,33.86,33.86,0,0,1,9.89,12.1Q427,417.2,427,427.45q0,11.32-4.12,19.32a37.86,37.86,0,0,1-11.26,13.32,50.5,50.5,0,0,1-16.69,8,81.12,81.12,0,0,1-20.41,2.82l-.07,22.43-11.11,0,.07-22.85a107.54,107.54,0,0,1-29.24-6.19,92.12,92.12,0,0,1-25.38-14.07l11-20.48a37.61,37.61,0,0,0,6.82,5.58A77.16,77.16,0,0,0,337,441a96.25,96.25,0,0,0,13.12,5A84.69,84.69,0,0,0,365,449l.14-44.22c-.85-.29-1.74-.54-2.67-.76s-1.81-.47-2.66-.76A177.67,177.67,0,0,1,340,396.94a49.4,49.4,0,0,1-14-8.06,31.42,31.42,0,0,1-8.4-11,36.48,36.48,0,0,1-2.84-15.28,45.14,45.14,0,0,1,3.7-18.57,40.51,40.51,0,0,1,10.3-14,48.75,48.75,0,0,1,15.51-9.14,72.19,72.19,0,0,1,19.56-4.1l.07-21.58,11.11,0L375,316.84a82.4,82.4,0,0,1,25.62,5.63,92.73,92.73,0,0,1,20.68,11.39Zm-70.51,5.33q0,9,6.26,13.47t19.09,8l.14-42.08q-13,.6-19.25,6T339.84,358.81Zm61.51,71.12q0-9.39-7.43-14.23T373,407l-.14,42.3q13.67-.16,21.06-5.06T401.35,429.93Z" transform="translate(-57.57 -23.58)" style="fill:#3aaea9"/><rect x="420.53" y="303.9" width="177.32" height="25.23" style="fill:#ded4ce"/><rect x="420.53" y="359.02" width="139.37" height="25.23" style="fill:#ded4ce"/><rect x="420.53" y="414.14" width="156.38" height="25.23" style="fill:#ded4ce"/><rect x="1711.08" y="864.83" width="126.7" height="25.23" style="fill:#ded4ce"/><rect x="1711.08" y="919.95" width="142.17" height="25.23" style="fill:#ded4ce"/><rect x="1276.54" y="75.28" width="161.2" height="25.23" style="fill:#ded4ce"/><rect x="1276.54" y="130.41" width="126.7" height="25.23" style="fill:#ded4ce"/><rect x="1276.54" y="185.53" width="142.17" height="25.23" style="fill:#ded4ce"/><polygon points="1586.96 1197.44 1449.89 1197.44 1449.89 1188.69 1578.21 1188.69 1578.21 1036.07 1586.96 1036.07 1586.96 1197.44" style="fill:#ded4ce"/><polygon points="930 356.67 921.26 356.67 921.26 312.14 1218.43 312.14 1218.43 280.99 1227.18 280.99 1227.18 320.89 930 320.89 930 356.67" style="fill:#ded4ce"/><polygon points="597.85 880.89 441.85 880.89 441.85 544.52 450.6 544.52 450.6 872.14 597.85 872.14 597.85 880.89" style="fill:#ded4ce"/><path d="M1507.66,767.85h-8.75V666.22c-.12-1.68-11-196.71,153.62-225.09l1.49,8.63c-156.91,27.05-146.49,214.29-146.37,216.18Z" transform="translate(-57.57 -23.58)" style="fill:#3aaea9"/><polygon points="1942.31 939.58 1933.56 939.58 1933.56 767.33 1748.7 767.33 1748.7 758.58 1942.31 758.58 1942.31 939.58" style="fill:#3aaea9"/><polygon points="341.2 554.69 165.47 554.69 165.47 389.11 174.22 389.11 174.22 545.94 341.2 545.94 341.2 554.69" style="fill:#3aaea9"/><polygon points="1022.68 130.41 1013.93 130.41 1013.93 0 1231.99 0 1231.99 8.75 1022.68 8.75 1022.68 130.41" style="fill:#3aaea9"/><polygon points="1454.27 1634.2 1294.3 1634.2 1294.3 1625.45 1445.52 1625.45 1445.52 1383.12 1454.27 1383.12 1454.27 1634.2" style="fill:#3aaea9"/><path d="M1398.23,1488.48H1258.71V1349h139.52Zm-126.4-13.12H1385.1V1362.08H1271.83Z" transform="translate(-57.57 -23.58)" style="fill:#def2f1"/><polygon points="1272.77 1424.39 1223.71 1378.14 1238.72 1362.22 1273.76 1395.27 1350.43 1332.27 1364.32 1349.17 1272.77 1424.39" style="fill:#def2f1"/><path d="M1535.87,1178.88s-26.6,4.48-22.09,46.12,28,38,29.56,37.9,23.61.51,24.77-50.4C1568.11,1212.5,1568.45,1174.86,1535.87,1178.88Z" transform="translate(-57.57 -23.58)" style="fill:#eea987"/><path d="M1524.21,1251.53s1,17.26-.59,21,21.25,15.4,35.52,2c0,0-2.89-18.73-2-25.35S1524.21,1251.53,1524.21,1251.53Z" transform="translate(-57.57 -23.58)" style="fill:#eea987"/><path d="M1513.24,1213.23s-3-3.08-4,.08,3.74,16.82,4.36,17.84c0,0,.55,1.22,1.24.54S1513.24,1213.23,1513.24,1213.23Z" transform="translate(-57.57 -23.58)" style="fill:#eea987"/><path d="M1567.81,1212.11s2.82-3.2,4-.08-3.08,17.13-3.61,18c0,0-.92,1.44-1.64.78S1567.81,1212.11,1567.81,1212.11Z" transform="translate(-57.57 -23.58)" style="fill:#eea987"/><path d="M1555.33,1257.34s-4.25,5.89-14.11,5.67-14.14-5.36-14.14-5.36,4.67,9.76,14.19,9.66S1555.33,1257.34,1555.33,1257.34Z" transform="translate(-57.57 -23.58)" style="fill:#c78d71"/><path d="M1623.25,1792.74s3.64,8.17,6.7,11.41,14.8,9,14.87,18.65c.07,10.43-19.79,7.54-27.55,7.16s-8.35-6-11.62-11.86-6.57-4.91-7.18-9.67S1601,1793,1601,1793Z" transform="translate(-57.57 -23.58)" style="fill:#1d2033"/><path d="M1623.59,1789.72l.57,5s-12.21,4.1-23.76.43l.65-6.76Z" transform="translate(-57.57 -23.58)" style="fill:#50558a"/><path d="M1381.51,1355.84s-8-2.52-8.67-7.27c-.55-4-4.18-8.87-5.29-10.36-1.49-2-3.79-9.8-6.32-8s3.17,13.07,3.9,15.66-10.25-2.34-13-1.67-9.84,19.31-1.93,21.82,18,0,19.35.68a50.4,50.4,0,0,0,5.68,2.06Z" transform="translate(-57.57 -23.58)" style="fill:#eea886"/><path d="M1354.16,1344.4s-24.76-6.07-26.75-5.09-2.23,2.33.06,3,23.74,6.56,23.74,6.56-30.5-2.27-32.31-1.82c-1.05.25-1.69,2.86-.5,3.33s31.3,4.44,31.3,4.44-28.49-2.06-29.88-1.24a2,2,0,0,0,.89,3.56c2.1.29,28.43,3.7,28.43,3.7s-20.83-.19-21.6,1.2c-.47.85-1.13,3.07,4.24,3s18.09.94,18.09.94Z" transform="translate(-57.57 -23.58)" style="fill:#eea886"/><path d="M1499.09,1329.15s-6.43,11.35-15,24.11c-.79,1.17-1.6,2.36-2.42,3.55h0c-1.12,1.61-2.26,3.23-3.42,4.84-1.39,1.92-2.8,3.82-4.24,5.68-8,10.34-16.36,19.13-22.73,20.7-13.78,3.39-83-12-83-12l5.35-27.22s24.28,8.26,40.5,9.62c10,.83,22.36,4.09,23.83,3.17s29.87-41.89,31.9-46.3,11.11-21.76,18.85-30,16.15-5.13,16.15-5.13C1528,1295.26,1499.09,1329.15,1499.09,1329.15Z" transform="translate(-57.57 -23.58)" style="fill:#dbdff0"/><path d="M1467.8,1790.33s-10.71,11.24-21.58,13.6-18.48,5.36-18.56,11.81,31.28,10.71,43.73,4.2c18.56-9.71,20.45-6.78,22.51-11.63s-2.47-17.83-2.34-19.38C1491.73,1787,1467.8,1790.33,1467.8,1790.33Z" transform="translate(-57.57 -23.58)" style="fill:#202338"/><path d="M1469,1785s-1.41,5.26-1.2,5.38,24.5,2.83,23.76-1.4c-.59-3.43-1.44-7.15-1.44-7.15Z" transform="translate(-57.57 -23.58)" style="fill:#2f6b8c"/><path d="M1493.5,1468.56s-11.25,81.7-15.84,109.32c-5.37,32.3-7.2,59-8.69,75.7-1.89,21-4.39,128.61-5.71,134.76s32.77,3,32.77,3,17.85-140.26,23.46-162.65c5.23-20.85,20.44-110.9,25.21-105.21s25.15,108.44,28.68,124.88,23.28,148.32,23.28,148.32,21.15,3.83,34-2.64c0,0-9.94-115.34-12.19-146.16-.85-11.75-3-140.83-22.81-192.81C1585.12,1427.55,1493.5,1468.56,1493.5,1468.56Z" transform="translate(-57.57 -23.58)" style="fill:#292c47"/><path d="M1526.5,1272.6s-29.76,6.16-33.3,9.28c-3.83,3.33-10.59,35.93-11,45s3.58,47,7.42,61.14,2.44,83.62,0,103.19c0,0,44.1,19.75,118.55,1.83,0,0-13-64.44-10.6-83.79,3-24.8,9-85.65,9-85.65s.19-37.23-5.06-41.67-43.86-9.34-43.86-9.34Z" transform="translate(-57.57 -23.58)" style="fill:#dbdff0"/><path d="M1584.69,1280.16s-18.65,5.13-8.39,39.35c8,26.81,9.12,32.56,9.12,32.56l43-10.74s-11-56.63-31.61-61.5C1596.83,1279.83,1588.69,1278.35,1584.69,1280.16Z" transform="translate(-57.57 -23.58)" style="fill:#dbdff0"/><path d="M1484.06,1353.26c-.79,1.17-1.6,2.36-2.42,3.55h0c-1.12,1.61-2.26,3.23-3.42,4.84-.88-15.94,3.31-38.05,3.31-38.05C1480.72,1331,1484.06,1353.26,1484.06,1353.26Z" transform="translate(-57.57 -23.58)" style="fill:#a3a9c4"/><rect x="1493.52" y="1328.68" width="18.28" height="27.91" transform="translate(2947.75 2661.68) rotate(180)" style="fill:#dbdff0"/><path d="M1524.35,1268.26s18.4,5.42,33.81-1l1.07,7.53s-20.67,7.86-36.83,4.26Z" transform="translate(-57.57 -23.58)" style="fill:#dbdff0"/><path d="M1629.85,1490.15s-1.57,9.63-2.87,11.44-4.69,10.82-5,12.08-2.32,10.32-2.67,11.47,2.25,2.85,3.94.4c1-1.53,2.8-7.4,3.52-9.3s3-7.91,3.63-6.84.73,9,.89,11.09-1,8.39-1.5,11-3.72,13.67-2.31,14.22,2.58.36,4.3-2.63c0,0,2.89,1.52,4.45-2.13,0,0,2.58.85,4-3.89a6.27,6.27,0,0,0,2.43-2.74c.66-1.71,4.39-16.21,4.2-22.08s-1.69-9.93-1.55-14.08,2-13.07,2-13.07Z" transform="translate(-57.57 -23.58)" style="fill:#eea886"/><path d="M1624.77,1500.32a115.2,115.2,0,0,0,25,.38s-8.35-94.92-7.92-100.28c.4-5-19.16-93.15-29.91-106.51l-16.34,51.58c1.24-.4,17.79,52.6,18,58.06C1613.94,1410.87,1624.77,1500.32,1624.77,1500.32Z" transform="translate(-57.57 -23.58)" style="fill:#dbdff0"/><path d="M1511.35,1205.57c-.82-11.06,0-20.2,1.44-25.84,1.77-7,13-5,13-5h0c17.17-5.14,27.52-2.78,34,0,9.73,8,10.47,21.55,10,29-.19,1.77-.4,3.56-.6,5.29,0,0,0,0,0,0-.88,7.44-1.77,13.91-1.77,13.91l-3.1,3.57s.8-12.38-1.11-13.08c-1-.37-1.26-2.87-1.27-5.1,0-1.92.16-3.64.16-3.64-19.86-9.14-42.16-2.63-42.66-1.37-.31.79-.76,3.17-1.21,5.28-.27,1.27-.53,2.45-.75,3.12-.6,1.75-.37,12.93-.37,12.93l-3.87-5.06s-.49-2.41-1.13-6h0c-.2-1.18-.42-2.49-.65-3.89C1511.54,1209.69,1511.37,1208.11,1511.35,1205.57Z" transform="translate(-57.57 -23.58)" style="fill:#434343"/><polygon points="1649.61 1067.26 1541.79 1067.26 1541.79 1145.42 1541.79 1161.88 1558.25 1145.42 1649.61 1145.42 1649.61 1067.26" style="fill:#3aaea9"/><path d="M1277.47,1087.63C1173,907.78,942.56,846.64,762.69,951.1a376.29,376.29,0,0,0-50.49,35.07v86.38a314.11,314.11,0,0,1,81.55-68c150.33-87.3,343-36.19,430.26,114.13a313.36,313.36,0,0,1,42.39,146.12c.14,3.9.22,7.77.22,11.67,0,108.49-56.15,214.07-156.74,272.47-133.73,77.63-301,45.78-397.68-68v86.46a372.56,372.56,0,0,0,73.53,47.38h332.19c7.77-3.81,15.42-7.93,23-12.34C1320.79,1498,1381.93,1267.5,1277.47,1087.63Z" transform="translate(-57.57 -23.58)" style="fill:#3f444f;opacity:0.24;mix-blend-mode:hard-light"/><rect x="20.15" y="1691.72" width="608.62" height="103.47" transform="translate(1632.33 2851.47) rotate(140.19)" style="fill:#494f5c"/><rect x="554.46" y="1498.96" width="32.51" height="78.54" transform="translate(1936.36 2330.93) rotate(140.19)" style="fill:#353c47"/><path d="M528.7,1465.87c104.45,179.86,334.93,241,514.78,136.55s241-334.93,136.55-514.79-334.92-241-514.78-136.54S424.25,1286,528.7,1465.87Zm53.48-31.06A314.75,314.75,0,0,1,696.3,1004.57c150.33-87.3,343-36.2,430.25,114.12a313.31,313.31,0,0,1,42.4,146.12h0c4.18,112.54-52.34,223.63-156.52,284.13C862.1,1636.24,669.48,1585.14,582.18,1434.81Z" transform="translate(-57.57 -23.58)" style="fill:#494f5c"/><path d="M554.28,1181.8s327.8-248.91,614.67,83h0a313.31,313.31,0,0,0-42.4-146.12c-87.3-150.32-279.92-201.42-430.25-114.12A313.59,313.59,0,0,0,554.28,1181.8Z" transform="translate(-57.57 -23.58)" style="fill:#c2c2c2;opacity:0.30000000000000004"/><path d="M703.72,1404.4s7.23,7.12,9.75,6.76,6.38,1.47,8.71,1.59,8.76-1.8,11.06-.81c.94.41,5.78,5.15,7.78,5.76s6.2,1.38,5.65,3.08-4.5,2-4.5,2a2.71,2.71,0,0,1,1.77,2.32c-.05,3.22-1.87,4.06-1.87,4.06s1.4,1.86,1,3.18c-.79,2.93-2.57,3.69-2.57,3.69a5.12,5.12,0,0,1-.51,3.49,4.54,4.54,0,0,1-3.88,2.28s-.88,3.28-2.78,3.44-3.39-.74-4.9-1-13.84-6.84-20.53-14.84a75.71,75.71,0,0,0-15-13.38Z" transform="translate(-57.57 -23.58)" style="fill:#eea987"/><path d="M642.28,1270.66a60.23,60.23,0,0,0,6.51,22.12c6,11.63,6,28,6.82,33.51s16.38,59,17.72,60.44,6.08,3.53,15.62,19.7,29.52,31.1,29.52,31.1l-16.54,16.24s-44.33-30.67-51.07-48.15c-7.2-18.66-22.86-72.18-22.86-72.18S611.78,1280.1,642.28,1270.66Z" transform="translate(-57.57 -23.58)" style="fill:#1d3b54"/><rect x="664.04" y="1336.35" width="79.49" height="132.65" transform="translate(738.06 -187.55) rotate(30)" style="fill:#3f444f"/><path d="M646.82,1758.94s5,12.09,8.92,15.42,21.39,26,27.41,27.18,18,1.93,18.52,4.49.78,15-16.33,15.37-21.63.09-25.79-4.1-20.51-16.21-25-16.11l.51,21.4-4.5.11s-4.9-26.43-8.45-31.49-.35-24,8.24-31.88S646.82,1758.94,646.82,1758.94Z" transform="translate(-57.57 -23.58)" style="fill:#db9c7c"/><path d="M683.15,1801.54s-19,2.59-27.06-3.64-18.19-21.72-34.31-22c0,0-5.77,7.39,3.68,24.28,0,0,5.23,19.34,5.09,22.56l4.5-.11-.51-21.4s16.13,7.11,27.29,19.48c0,0,32.82,5.22,39-5,0,0,3.41-5.11,1.9-10.11S683.15,1801.54,683.15,1801.54Z" transform="translate(-57.57 -23.58)" style="fill:#bfc2d1"/><path d="M610.76,1446.24s-20.08,24.38,5.08,67.87c0,0,2.16,22.23,2.58,30.57s5.81,39.54,2.93,54.69-12.33,37.89-8.8,59.61,19.63,84.47,16.53,100.55l17.86-.42s6.37-132.88,8.34-137.57,9.86-14.85,8.91-35.48,20.2-105.15,20.11-128.58S610.76,1446.24,610.76,1446.24Z" transform="translate(-57.57 -23.58)" style="fill:#db9c7c"/><path d="M635.48,1759.34s4.71,12.2,8.56,15.63,20.76,26.54,26.76,27.82,18,2.36,18.41,4.93.42,15-16.7,15-21.62-.43-25.69-4.71-20.12-16.7-24.61-16.7v21.41h-4.5s-4.28-26.54-7.7-31.68.21-24,9-31.68S635.48,1759.34,635.48,1759.34Z" transform="translate(-57.57 -23.58)" style="fill:#eea886"/><path d="M670.8,1802.79s-19,2.14-27-4.28-17.68-22.14-33.77-22.84c0,0-5.95,7.25,3.1,24.36,0,0,4.77,19.46,4.55,22.67h4.5v-21.41s16,7.5,26.82,20.12c0,0,32.68,6,39.11-4.06,0,0,3.53-5,2.14-10.06S670.8,1802.79,670.8,1802.79Z" transform="translate(-57.57 -23.58)" style="fill:#dbdff0"/><path d="M606.84,1445.88s-20.65,23.89,3.48,68c0,0,1.62,22.27,1.85,30.62s4.87,39.67,1.63,54.75-13.23,37.58-10.21,59.38,17.63,84.91,14.15,100.92H635.6s9.51-132.7,11.6-137.34,10.21-14.61,9.75-35.26,28.53-99.75,29-123.18S606.84,1445.88,606.84,1445.88Z" transform="translate(-57.57 -23.58)" style="fill:#eea886"/><path d="M685.94,1470s-23,132.23-17.88,151.26c0,0-38.82-3.56-69.45-15.47,0,0,15.29-51.75,10.12-79.18s-16.81-42.45-9.13-70.18S685.94,1470,685.94,1470Z" transform="translate(-57.57 -23.58)" style="fill:#dbdff0"/><path d="M799.54,1405.15s7.41,2.07,10.28-1.25c2.44-2.83,7.64-4.72,9.24-5.31,2.14-.78,7.81-5.63,8.83-2.94s-9,8.44-10.82,10.07,9,3.32,10.78,5.2-2.09,19.74-9.43,17.71-13.83-9-15.19-9.14a46.1,46.1,0,0,1-5.39-1.27Z" transform="translate(-57.57 -23.58)" style="fill:#eea886"/><path d="M826.25,1410s22,7.71,23.08,9.45.55,2.91-1.54,2.28-21.51-6.83-21.51-6.83,24.55,13.5,25.72,14.75c.68.72-.13,3-1.28,2.81s-26.26-12.23-26.26-12.23,22.91,12.65,23.57,14a1.8,1.8,0,0,1-2.46,2.28c-1.76-.82-23.69-11.36-23.69-11.36s16.1,10.26,16,11.71c-.06.89-.66,2.93-4.73.15s-14.36-8.32-14.36-8.32Z" transform="translate(-57.57 -23.58)" style="fill:#eea886"/><path d="M670.17,1175.39c10.43-.21,33.4,5.68,36.19,33.4a86.56,86.56,0,0,1-3,13.23c-2,5.8,2.78,23.19,1.39,24s-7.07,1.74-7.07,1.74-6.61,18.67-13.23,18.32-31.51-6.22-42.64-30S628,1176.24,670.17,1175.39Z" transform="translate(-57.57 -23.58)" style="fill:#eea886"/><path d="M706.36,1208.79s-17.25,11.06-34.1,12.92-28.08,18.88-28.08,18.88-24.66-32.8-3.32-58.17S710.92,1176.7,706.36,1208.79Z" transform="translate(-57.57 -23.58)" style="fill:#0e2d3d"/><path d="M649.06,1266.1s18.56,17.62,25.51,25.51,29.7,36.42,31.79,45-6.19,21-11.83,26.91c-5.19,5.46-.93,18.1-1.63,25.29s-4.4,74-7,81.19-63.84,10.79-86.34-13.57c0,0,21.85-43.26,28.81-51.38s-5.33-60.08-9.51-72.38S622.61,1265.64,649.06,1266.1Z" transform="translate(-57.57 -23.58)" style="fill:#e03636"/><path d="M647.21,1266.09c1.62-8.59,0-21,0-21s31.39,14.51,26,18.44c-1.42,1-2.4,3-3.07,5.36-1.92,6.69-1.38,16.5-1.38,16.5l10.42,12.4C688.33,1310.41,646.43,1270.27,647.21,1266.09Z" transform="translate(-57.57 -23.58)" style="fill:#eea886"/><path d="M665.3,1220.74c0-3.26-3.48-8.24-8.94-3.94s1.28,20,5.69,18.55S665.3,1224.1,665.3,1220.74Z" transform="translate(-57.57 -23.58)" style="fill:#eea886"/><path d="M673.17,1263.53c-1.42,1-2.61,3.72-3.28,6.08a51.65,51.65,0,0,1-18.14-19.31C658.4,1258.5,673.17,1263.53,673.17,1263.53Z" transform="translate(-57.57 -23.58)" style="fill:#a77860"/><path d="M626.77,1286.16s15.53-12.32,26.37-4.06,12.88,16.52,16.18,21.35,41.88,48.09,43.81,48.89,34,18.73,51.48,27.59c17.12,8.68,42.66,24.37,42.66,24.37l-8,15.93s-85.77-35.56-101.57-47c-15.41-11.2-60.29-47.46-60.29-47.46S609.44,1312.41,626.77,1286.16Z" transform="translate(-57.57 -23.58)" style="fill:#e03636"/><path d="M741.26,1421.86s-10.64-5.43-14.29-3.84.08,3.74.08,3.74-3.66-2.2-5.66.48,2.49,5,2.49,5a3.29,3.29,0,0,0-4.16,2.43c-1,3.36,3.2,4.44,3.2,4.44s-5.2,1.16-2.6,4.78c4.37,6.1,13,6.4,13,6.4s2.09-.13,2.78-3.44c0,0,5.17.05,4.39-5.77,0,0,4.89-3.23,1.53-6.87C742.07,1429.2,747.07,1425.44,741.26,1421.86Z" transform="translate(-57.57 -23.58)" style="fill:#db9c7c"/><path d="M669.41,1222.17s-9.7,42.3,3.76,50.49c0,0-28.58-7.73-41.55-24.2,0,0-14.36-68.53,30.29-76.2C706.05,1164.67,669.41,1222.17,669.41,1222.17Z" transform="translate(-57.57 -23.58)" style="fill:#0e2d3d"/><path d="M1146.21,1789.72s4.89,9.14,8.09,12.76,15.45,10.11,15.52,20.88c.07,11.68-20.65,8.43-28.76,8s-8.71-6.67-12.13-13.28-6.85-5.49-7.49-10.82,3.31-17.55,3.31-17.55Z" transform="translate(-57.57 -23.58)" style="fill:#202338"/><path d="M1022.84,1788.66s-10,11.15-20.13,13.49-17.23,5.31-17.31,11.71,29.18,10.61,40.78,4.16c17.32-9.62,19.08-6.72,21-11.53s-2.31-17.68-2.18-19.21C1045.15,1785.39,1022.84,1788.66,1022.84,1788.66Z" transform="translate(-57.57 -23.58)" style="fill:#202338"/><path d="M1024,1783.33s-1.32,5.22-1.12,5.33,22.84,2.81,22.16-1.38c-.56-3.4-1.35-7.1-1.35-7.1Z" transform="translate(-57.57 -23.58)" style="fill:#81807e"/><path d="M1125,1786.2a45.3,45.3,0,0,0-.77,5.1c.19.12,23,4.19,22.84,0a19.91,19.91,0,0,0-2.1-7.11Z" transform="translate(-57.57 -23.58)" style="fill:#81807e"/><path d="M1044.56,1470.63s-8.24,80-12.53,107.39c-5,32-6.71,58.48-8.1,75-1.76,20.85-2.1,123.39-3.33,129.48s27.29,1.69,27.29,1.69,14-134,19.26-156.19c4.87-20.67,23-109.67,27.4-104s10,103.86,13.26,120.16,13.3,143.94,13.3,143.94,22.7,4.52,28.74-.59c0,0,2.74-110,.64-140.56-.79-11.65,13.65-139.67-4.87-191.21C1135.83,1428.53,1044.56,1470.63,1044.56,1470.63Z" transform="translate(-57.57 -23.58)" style="fill:#292c47"/><path d="M1118.5,1452.9s-5.5-8.31-11.31-9.38,80.17-42.64,79.94-57.49c-.17-12-31.21-35.81-31.21-35.81h0s0,0,0,0h0c-.66,2.38-9.33,39.31-9.64,55.16-.33,16.46,1,73.08,1,73.08l-22,5.9-70.41.66-16.07-6.56s1.76-18.2,2.41-31c.41-8.13,2-22.68,1.58-36.85,0,0,.26-14.94-1.23-21.38-.16-28.39-1.87-56.52-1.87-56.52q-1.44-19.31-2-36.14c3.11-1.65,6.84-3.57,9.83-5,9.25-4.4,22.13-10.33,30.4-14.13,4.85-2.22,9.59-3.85,9.59-3.85s33-3.16,35.73-3c.84.06,5,1.5,10.39,3.56,11.72,4.45,34.31,13.5,37.91,16.09,5.28,3.77,39.82,95.16,40.33,101.44C1212.71,1403,1118.5,1452.9,1118.5,1452.9Z" transform="translate(-57.57 -23.58)" style="fill:#dbd8e3"/><path d="M1040.86,1472.45s48.37,4.12,90.73,0v13.9s-63.08,6-92.85-2.65Z" transform="translate(-57.57 -23.58)" style="fill:#1d2033"/><path d="M1036.86,1296.37c.37,11.42.92,23.67,1.89,36.78,0,0,.92,32,2.76,62.4a59.9,59.9,0,0,1,.59,13.36c-.45,5.93-1.1,12.42-1.88,19.19a2,2,0,0,1,0,.25q-.29,2.42-.57,4.86s0,0,0,.07c-4.12,33.84-11.08,72.67-14.71,84.42-.77,2.45,1.87,4.72,3.76,6.46l13.23,8.34s5.46-50.2,7.26-67.24c1.75-16.45,7.25-38.5,9.66-60h0c3-27.26,7.26-54,9.52-69.83,5.91-41.31,13.77-59.8,13.77-59.8C1078.35,1276.76,1036.86,1296.37,1036.86,1296.37Z" transform="translate(-57.57 -23.58)" style="fill:#323657"/><path d="M1177.26,1381.83c5.74,12.58-52.64,35-51.32,38.1,3.15,7.44,16,22.6,16,22.6s76.85-38,76-46.63c-.63-6.28-36.64-101.15-41.91-104.93-3-2.19-25.62-10.19-36.7-14.56-2-.8-8.93-3.39-10.75-4.08-2.35,2.62-18.54,20.49-24.26,88-1,11.38,2.08,35.49,4.11,55.16,2.17,21,4.57,37.36,6.33,54.91,3.47,34.58,5.9,62.09,5.9,62.09l34.41-15.32c5.57-2.78,15.2-10,13.1-15.92-8-22.28-19.89-64.51-19.9-84.06,0,0,5.63-54,8.67-64.48C1157,1352.72,1170.85,1367.77,1177.26,1381.83Z" transform="translate(-57.57 -23.58)" style="fill:#323657"/><path d="M1120.12,1274.13s.23-11.35,4.6-34.3c1.17-6.14-35.67,16.17-35.67,16.17s.12,2.15.19,5.06c0,1.53.07,3.27.06,5,0,.62,0,1.23,0,1.84,0,1.62-.11,3.17-.25,4.5a21,21,0,0,1-1.22,4.42C1086.27,1280.35,1107.72,1283,1120.12,1274.13Z" transform="translate(-57.57 -23.58)" style="fill:#eea987"/><path d="M1097.13,1286l-6.11,8.2s3.58,4.79,9.93,1.25Z" transform="translate(-57.57 -23.58)" style="fill:#e8734d"/><path d="M1092.66,1294.55s-23.16,89.17-18.39,158.58l7.79,13.74,7.3-14.39s2-124.16,8.34-158.15Z" transform="translate(-57.57 -23.58)" style="fill:#e8734d"/><path d="M1090.59,1278.37l6.54,7.65s10.49-2,13.58-7.52S1090.59,1278.37,1090.59,1278.37Z" transform="translate(-57.57 -23.58)" style="fill:#eea987"/><path d="M1089.09,1271.67s.76,5.83,8,14.35l-7.94,10.67-4.3-22.14Z" transform="translate(-57.57 -23.58)" style="fill:#c4c1cc"/><path d="M1120.83,1265.18s-13.09,16.64-23.7,20.84l4.94,12.2,22.54-27.25Z" transform="translate(-57.57 -23.58)" style="fill:#c4c1cc"/><path d="M902.23,1388.54s-24.26,2.83-25.62,4.38-1,2.87,1.24,2.7,23.57-2,23.57-2-27.81,8.21-29.23,9.22c-.83.59-.35,3.17.89,3.19s29.38-6.51,29.38-6.51-26,7.72-26.85,8.93a2,2,0,0,0,2.21,2.92c2-.43,26.56-6.21,26.56-6.21s-18.45,6.83-18.58,8.35c-.08.93.23,3.17,4.93,1.25s16.33-5.23,16.33-5.23Z" transform="translate(-57.57 -23.58)" style="fill:#eea886"/><path d="M930.92,1389.68s-8.08.42-10.55-3.66c-2.1-3.48-7.22-6.63-8.8-7.6-2.11-1.3-7.26-7.6-8.75-5.07s8,10.76,9.69,12.86-10,1.33-12.09,2.86-1,20.8,7,20.4,15.89-6.1,17.33-5.89a49.44,49.44,0,0,0,5.84,0Z" transform="translate(-57.57 -23.58)" style="fill:#eea886"/><path d="M927.55,1408.73s59.52-8.33,72.73-11.58c6.1-1.51,14.15-9.93,21.79-19.84,2.52-3.27,5-6.69,7.34-10.08v0c9.38-13.54,16.72-26.51,16.72-26.51s27.72-32.49,5.48-47c0,0-9.53-.21-14.76,2.63s-16.85,26.85-18.79,31.09-23,43.6-24.42,44.48-22.43,5.45-31.8,7.41l-39.07,8.12Z" transform="translate(-57.57 -23.58)" style="fill:#323657"/><rect x="1076.53" y="1473.19" width="22.62" height="17.16" transform="translate(2118.1 2939.96) rotate(180)" style="fill:#3a4066"/><path d="M1114.31,1453.92a12.79,12.79,0,0,0,4-.76s2.1-1.35,3.66-2.22a12.85,12.85,0,0,1,1.23-.62,23.37,23.37,0,0,0,6.76-3.22c2.65-2,11.28-10.1,11.28-10.1l-5.58-8.58-2.57-8.49s-20.13,2-22.82,3.6a7.9,7.9,0,0,0-.74.49c-2.14,1.57-3.07,3.64-4.1,4.6-.38.35-3.89,4.1-3.69,5.62a5,5,0,0,0,2.62,4.11s.71,4.12,2.84,6a7.45,7.45,0,0,0,3.83,5.35S1112,1453.47,1114.31,1453.92Z" transform="translate(-57.57 -23.58)" style="fill:#efaa88"/><path d="M1142,1442.53s-11.2-9.18-17.26-22.6l34.35-18.81,12.75,26Z" transform="translate(-57.57 -23.58)" style="fill:#323657"/><path d="M1069.65,1199.52s-8.09,15-4.08,17.34c3.32,1.92-3.88,16.65-4.82,19.06s6,4.15,7.48,5.7,5.84,20.6,11.57,21.17,31.49-8.39,38.51-15.68,12.77-40.26,8.09-54.17S1083.94,1173.31,1069.65,1199.52Z" transform="translate(-57.57 -23.58)" style="fill:#eea886"/><path d="M1068,1202.77s-8.26-16.21,6.74-28.23,42.68,9.08,45.8,9.88,20.81,2,11.88,33.09c-7.67,26.68-8.74,27.8-8.74,27.8s-5.73-15.45-9-17.81c-5.06-3.67-16.17-2.79-16.17-2.79s5.29-14.06-3-16S1076.41,1199.66,1068,1202.77Z" transform="translate(-57.57 -23.58)" style="fill:#16202e"/><path d="M1107.38,1216.66c.73-1.93,3.09-10.21,10.2-5.35s-4.43,20.48-5.67,20.69S1101.24,1232.88,1107.38,1216.66Z" transform="translate(-57.57 -23.58)" style="fill:#eea886"/><path d="M1089.3,1266.08c0,.62,0,1.23,0,1.84,21.07-7.08,25.15-17.72,25.15-17.72-6.57,4.65-25.18,10.86-25.18,10.86C1089.28,1262.59,1089.31,1264.33,1089.3,1266.08Z" transform="translate(-57.57 -23.58)" style="fill:#a77860"/></g></g></svg>