<svg xmlns="http://www.w3.org/2000/svg" width="996.26" height="692.95" viewBox="0 0 996.26 692.95"><title>admin-forgot</title><g id="Shadow"><g style="opacity:0.5"><path d="M522,644.12c-28.19.08-56.38.76-84.52,3.89-10.62,1.18-21,3.78-31.64,4.82-21.24,2.09-42.11,6-63.43,7.8-17.16,1.45-34.4,2.3-51.52,4.14a181.41,181.41,0,0,1-49.74-1.52c-11.79-2.11-23.64-3.3-35.23-6.68-13-3.79-27-6.5-40.56-6.4-19.27.13-38,.15-56.47,6.84-6.47,2.35-14.39,6.21-19.31,11.14C78.29,679.43,76.77,707.58,88,719.28c18.92,19.69,59.31,27.42,85.83,27.79,29.06.39,57.29-1.76,86.4-3,27-1.18,54-2.86,81.11-2.8,55.33.12,110.67,0,165.89-3.69,51.89-3.48,103.91-2.28,155.91-2.28,53.33,0,106.29.41,159.24,7.5,23.06,3.09,46.56,4.17,69.75,6.33,20.76,1.94,40.71,0,61.39-1.82a146.59,146.59,0,0,0,50.39-13.51c12.49-6,34.75-24.5,38.58-38.75,10.74-39.93-151.3-39-176.18-38.88-27.83.1-55.88,1-83.69,0-11.7-.44-23.23-2.73-34.64-5.24s-22.83-1.86-34.37-2.91c-48.09-4.37-96.29-3.73-144.53-3.73C553.38,644.21,537.67,644.07,522,644.12Z" transform="translate(-46.74 -56.95)" style="fill:#eed5d5"/></g></g><g id="Object"><polygon points="935.13 394.85 939.77 426.75 930.47 606.72 914.85 603.45 888.96 398.85 935.13 394.85" style="fill:#292949"/><polygon points="858.45 388.85 855.43 508.16 885.74 611.15 903.4 604.58 888.52 512.74 902.18 387.83 858.45 388.85" style="fill:#292949"/><path d="M950.2,651.89l-21.14,9.69,7.1,14.79-11.09,7s-1.05,6.15,2.68,8.75,27.85-17.66,27.85-17.66Z" transform="translate(-46.74 -56.95)" style="fill:#1c1c35"/><path d="M981.88,655.39l-22.94,3.87,3,16.12-12.52,3.87s-2.61,5.68.31,9.15,31.48-9.83,31.48-9.83Z" transform="translate(-46.74 -56.95)" style="fill:#1c1c35"/><path d="M937.29,251.24a62.62,62.62,0,0,0,7,15.09,106.66,106.66,0,0,1,4.19-28.85,2.82,2.82,0,0,0,0-2.17,2.6,2.6,0,0,0-1.76-1C934.66,231.4,934.44,242,937.29,251.24Z" transform="translate(-46.74 -56.95)" style="fill:#292949"/><path d="M943.91,266.52c1.26,4,3.34,8.54,7.5,11,4.9,2.88,10.14,1.41,13.79-.8,12.08-7.31,33-47.6,1.53-57.49C938.15,210.24,938.69,249.87,943.91,266.52Z" transform="translate(-46.74 -56.95)" style="fill:#eac1a4"/><path d="M968.78,266.69c1.88,2.78,6.16,2.15,9.19.71,12.47-5.89,20.09-20.62,17.68-34.21-2-11.36-16.07-20.18-19.29-6.24-1.14,4.94,1.72,11.9.9,17.39C976.07,252.19,972.22,259.64,968.78,266.69Z" transform="translate(-46.74 -56.95)" style="fill:#292949"/><path d="M938,204.71c-14.33,7.93-20.74,25.39-33.85,35.21a48.6,48.6,0,0,0,37.81.94c11.8-4.72,39.78-7.58,36.12-23.93C974.4,200.29,950.6,197.77,938,204.71Z" transform="translate(-46.74 -56.95)" style="fill:#292949"/><path d="M993.65,307.7c8.2,14.25,8.17,30.38,7,45.82-2.56,34.94.76,75.45-11.28,108.85-22.74,0-66.33-10.45-89-12.78-4.41-30.38-1.84-48.13.65-82.53,1.23-17,3.86-39.71,9.86-55.87,4.92-13.22,18-30.3,37.79-29.76C967.26,281.94,986.18,294.75,993.65,307.7Z" transform="translate(-46.74 -56.95)" style="fill:#2b514d"/><path d="M956.61,288.48c-2.07.88-4.61.51-7.07-1.87-2.11-2.05-1.46-2.71-1-5.73.66-4.44,1.84-8.87,2.76-13.27l12.24,2.55s-2.46,11.92-2.65,12.73A7.85,7.85,0,0,1,956.61,288.48Z" transform="translate(-46.74 -56.95)" style="fill:#eac1a4"/><polygon points="787.46 263.15 777.9 253.74 762.83 254.09 761.11 261.74 783.89 271.58 787.46 263.15" style="fill:#eac1a4"/><polygon points="899.77 234.7 888.89 224.87 830.26 271.58 788.11 256.79 774.56 274.06 830.96 307.14 890.59 268.93 899.77 234.7" style="fill:#2b514d"/><polygon points="160.62 605.91 176.22 614.49 174.87 621.81 147.13 618.01 148.62 607.46 160.62 605.91" style="fill:#292949"/><polygon points="90.05 613.94 79.19 613.81 76.54 623 76.82 623.08 76.75 623.09 94.83 633.48 103.37 634.32 104.33 624.56 102 622.9 90.05 613.94" style="fill:#292949"/><path d="M170.26,497.76c1.75-.18,6.5,62.28,6.5,62.28L143,673.55l-19.48-3.84,11.86-113.33S94.12,508.82,106,473.3C123.94,482,170.26,497.76,170.26,497.76Z" transform="translate(-46.74 -56.95)" style="fill:#2b514d"/><path d="M218.94,498.29,222.88,554,212,664.82l-20-1s-4.84-105-6.82-107.13-19.07-57.23-19.07-57.23Z" transform="translate(-46.74 -56.95)" style="fill:#2b514d"/><path d="M192.58,523.7c-63.69-1.16-68.36-33.3-82.39-36.8s-6.71-20.21-6.71-20.21,2.66-7.45,3.79-11.35c8.18-28,32.74-64,32.75-64,12.11-16.53,24.26-31.13,34.76-39.94,31.22-26.21,64.66-27.44,64.66-27.44,48.16,15.06,31.16,37.71,31.72,43.66-15.85,14.52-27.32,36.28-35.79,59.64A139.44,139.44,0,0,0,230,486.9c1.05,8.32,2.27,15.53,3.48,21.81C233.69,516.91,225.8,524.23,192.58,523.7Z" transform="translate(-46.74 -56.95)" style="fill:#81b3ef"/><path d="M239.62,329s10.72-5.88,17.36,4.34c8.06,12.4-37.5,68.32-36.42,187.91-11.93,2.42-42.7,8.19-74.44-6.79C153.33,478.93,184.45,371.77,239.62,329Z" transform="translate(-46.74 -56.95)" style="fill:#fff"/><path d="M263.19,291.23c5.39,4.22,10.08,13.17,8.22,20.21-.9,3.39-3.35,5.67-4.16,9.34-1.63,7.23-14.2,12.55-8.91,20.94,2.71,4.31,8,6.13,12.84,7.66a3.81,3.81,0,0,0,1.82.25,2.64,2.64,0,0,0,1.85-2.2,10.37,10.37,0,0,0-.11-3c-1.11-10.58,6.06-21.18,8.71-31.18S286,291.83,279,283.54c-5.9.54-8.29-.59-12.08,4Z" transform="translate(-46.74 -56.95)" style="fill:#292949"/><path d="M250.55,333.57c7,.55,13.89-3.3,18.34-8.76s6.8-12.35,8.26-19.24c4.85-22.94-23.24-30.36-38-16.33C226.19,301.47,230.12,332,250.55,333.57Z" transform="translate(-46.74 -56.95)" style="fill:#eacdb0"/><path d="M215.57,329.26c3.73-.28,7.46-.66,10.8-3.08,5.41-3.9,8.6-12.7,11.92-18.27,3.5-5.87,7.5-12.17,14-14.41,4.21-1.47,8-.51,11.92,1.07,2.71,1.09,2.39,2.15,5.27,1.66,2.21-.37,5.09-3.06,6.31-4.82,2.05-3,2.18-7,1.09-10.42a17,17,0,0,0-9.74-11.11c-17.4-7.76-34.94-2.88-47.09,12.19-5.84,7.25-7.93,17.16-13.8,24-3.63,4.24-8.13,6.19-11.6,10.87-9,12.15-23.72,26.32-29,40.55a2.1,2.1,0,0,0-.13,1.64c.49,1,2,.67,3.06.16l17.94-8.95a28.43,28.43,0,0,0,6.67-4.14c4.81-4.42,6.48-12,12.33-15C208.64,329.68,212.11,329.51,215.57,329.26Z" transform="translate(-46.74 -56.95)" style="fill:#292949"/><polygon points="144.4 302.44 96.34 291.16 83.49 227.29 99.45 228.68 111.76 270.39 174.06 272.17 177.62 276.92 144.4 302.44" style="fill:#81b3ef"/><path d="M150.67,279.31l-1.57-16.74-11.86-9.08-.7,4.89,4.18,4.19s1.05,4.88,4,7.32c-.35,2.79-2.62,8.73-2.62,8.73Z" transform="translate(-46.74 -56.95)" style="fill:#ebceb1"/><path d="M432.85,657.54l13.77,8.83,4.78,7a51.79,51.79,0,0,1-7.65,3.13c-2.75.69-24.58-1.64-24.58-1.64l-.59-12.78Z" transform="translate(-46.74 -56.95)" style="fill:#273140"/><path d="M364,667.18l6.8,7.63s5.54,10.35,2.76,10.19-17.86.65-18.88-1.08-9-7.76-10.07-8.93,0-10.89,0-10.89Z" transform="translate(-46.74 -56.95)" style="fill:#273140"/><path d="M403,464.17l-17.11,104-21.81,99-19.44-1.11,3.75-104.53s-14-96.07-14.06-124.48Z" transform="translate(-46.74 -56.95)" style="fill:#bdbfc1"/><polygon points="399.11 412.34 391.29 604.24 371.28 605.17 360.65 507.66 345.16 421.62 386.5 368.38 399.11 412.34" style="fill:#bdbfc1"/><polygon points="297.64 247.01 297.64 247.01 297.64 247.01 297.64 247.01" style="fill:none"/><path d="M435.37,368.25c-10.49-51,2.82-75.64-20.13-89.82,0,0-37.4-10.28-61.22,6.82l-1,.72-8.66,18-6.57,80.73s-18.37,106-8.62,106.84c11.05,1,61.79-22.68,71.42-22.12s39.11,5.84,66.92-3.63C491.38,457.67,445.85,419.29,435.37,368.25Z" transform="translate(-46.74 -56.95)" style="fill:#2b514d"/><polygon points="342.12 219.9 334.85 220.17 334.1 227.49 360.83 302.23 366.82 269.84 360.28 222.81 342.12 219.9" style="fill:#fff"/><polygon points="364.09 330.95 353.79 412.32 375.5 415.38 390.52 414.22 371.52 343.62 364.09 330.95" style="fill:#fff"/><path d="M398.72,280.09l-15,.62a75.2,75.2,0,0,1-.86-11.9c-4.3-.86-9.34-2.35-10.66-6.54a12.58,12.58,0,0,1-.33-4.11c.18-5.71-1.42-11.49.53-17.13.65-1.86.14-4,1-5.8,1.43-3.16,4.82-4.93,8.12-6,8.42-2.71,18.09-2.17,25.58,2.54a13.66,13.66,0,0,1,4.95,4.92c1.69,3.22,1.31,7.08.88,10.69l-1.17,10c-.45,3.83-1.26,8.22-4.62,10.1-1.78,1-4,1.11-5.6,2.43C398.8,272.24,399.83,276.66,398.72,280.09Z" transform="translate(-46.74 -56.95)" style="fill:#e7caad"/><path d="M420.15,205.91a14.59,14.59,0,0,1-3.45-.64c-3.73-1.26-6.51-4.19-10.46-5.33-8-2.32-17.64-1.07-25,2.77-7,3.67-16.82,5.68-23,10.34a19.83,19.83,0,0,0-5.81,7.61,30,30,0,0,0,4.34,31.4,43.52,43.52,0,0,0,5.43,5.17c4,3.28,8.84,7.36,13.82,8.08-.49-4.3-6.29-17.25-3.5-21.23,3.71-5.26,11.81-5.82,17.66-5.77,7,.06,12.46-2.64,19.38-2.88,3.52-.12,7.55.25,10.05-2.24,2.89-2.88,8.77-11.73,10-15.51A9.24,9.24,0,0,0,427,208.2C424.73,206.19,422.49,206.13,420.15,205.91Z" transform="translate(-46.74 -56.95)" style="fill:#292949"/><path d="M467,318.32l-45.3-41.05-10.9,9.19,37.5,62.62,16.92,1.63s4.88-17.44,5.89-19.29Z" transform="translate(-46.74 -56.95)" style="fill:#2b514d"/><path d="M359.33,467.4A42.13,42.13,0,1,0,302.9,530,43.65,43.65,0,0,0,314,537.31a42.18,42.18,0,0,0,45.38-69.91Z" transform="translate(-46.74 -56.95)" style="fill:#3aaea9"/><path d="M373.31,496.5a40.84,40.84,0,0,0-14-29.1,44.15,44.15,0,0,0-8.88-6.27,42.26,42.26,0,0,1-51.55,63.12c-.73-.33-1.45-.7-2.16-1.08a45,45,0,0,0,6.16,6.8A43.65,43.65,0,0,0,314,537.31a42.41,42.41,0,0,0,59.36-40.81Z" transform="translate(-46.74 -56.95)" style="fill:#2b7a77"/><path d="M686.78,315c-3.18-34.87-20.7-66.9-52.06-95.18s-65.15-42.55-100.46-42.42c-30.69.12-58.34,11.48-82.18,33.78a19.71,19.71,0,0,0,.25,29L471,257.09a19.71,19.71,0,0,0,26.28.09c13.35-11.84,27.26-17.64,42.52-17.76,18.49-.13,37,8,55,24.25s27.66,33.83,28.9,52.49-6.2,36.94-22,54.52c-21.86,24.23-43.53,34.3-64.4,29.91-22-4.61-48.34-21-78.4-48.62l-8.08-7.29a19.71,19.71,0,0,0-27.82,1.44L359.44,416.5a19.7,19.7,0,0,0,1.44,27.82l18.94,17.09A19.7,19.7,0,0,0,407.64,460l41.11-45.58a1.42,1.42,0,0,1,2-.13c36.15,30.89,70.34,47.51,101.61,49.39,33.26,2,65.15-13.63,94.78-46.49S690,350.08,686.78,315Z" transform="translate(-46.74 -56.95)" style="fill:#3aaea9"/><path d="M686.78,315c-3.18-34.87-20.7-66.9-52.06-95.18C615.3,202.34,595,190.2,573.89,183.53A190.32,190.32,0,0,1,603,205.35c31.36,28.29,48.88,60.31,52.06,95.19,3.18,35-10.17,69.41-39.68,102.13s-61.52,48.49-94.78,46.49a117,117,0,0,1-29.61-5.9c21.4,12.38,41.91,19.22,61.3,20.39,33.26,2,65.15-13.63,94.78-46.49S690,350.08,686.78,315Z" transform="translate(-46.74 -56.95)" style="fill:#2b7a77"/><polygon points="315.22 223.75 293.75 230.37 242.39 317.92 245.9 334.84 312.43 368.11 321.77 350.02 279.75 317.92 305.43 282.9 315.35 226.87 315.22 223.75" style="fill:#2b514d"/><polygon points="374.11 221.07 363.21 209.36 352.7 212.28 349.78 222.78 359.12 224.53 367.89 226.31 374.11 221.07" style="fill:#eac1a4"/><polygon points="320.85 351.8 331.33 353.96 329.65 360.13 338.73 370.76 326.28 375.29 314.09 364.9 320.85 351.8" style="fill:#e7caad"/><path d="M147.73,338.41A24.33,24.33,0,1,0,161.91,385a25,25,0,0,0,6.92-3.28,24.36,24.36,0,0,0-21.1-43.27Z" transform="translate(-46.74 -56.95)" style="fill:#3aaea9"/><path d="M166.3,340.16a23.64,23.64,0,0,0-18.57-1.75,26.15,26.15,0,0,0-5.74,2.53,24.41,24.41,0,0,1,15.9,44.3c-.38.26-.78.51-1.18.75a25.59,25.59,0,0,0,5.2-1,25,25,0,0,0,6.92-3.28,24.48,24.48,0,0,0-2.53-41.52Z" transform="translate(-46.74 -56.95)" style="fill:#2b7a77"/><path d="M169.75,131c-18.21-8.8-39.27-9.66-62.61-2.55S66.7,148,56.26,165.55c-9.08,15.22-11.68,32.29-7.74,50.73A11.39,11.39,0,0,0,63,224.79l13.89-4.23a11.38,11.38,0,0,0,7.87-13c-1.89-10.13-.62-18.74,3.86-26.33,5.44-9.19,15-15.92,28.36-20s25-3.62,34.58,1.31S168,176.63,172,189.71c5.49,18,4,31.75-4.35,40.78-8.83,9.5-24.76,17.69-47.4,24.33l-6,1.83a11.39,11.39,0,0,0-7.57,14.2l15.95,52.37a11.37,11.37,0,0,0,14.2,7.56l14.09-4.29A11,11,0,0,0,154,325a11.4,11.4,0,0,0,4.46-12.71L148.1,278.38a.82.82,0,0,1,.52-1c26-8.7,44.44-20.68,54.68-35.59,10.89-15.87,12.64-36.31,5.19-60.75S188,139.85,169.75,131Z" transform="translate(-46.74 -56.95)" style="fill:#3aaea9"/><path d="M169.75,131c-18.21-8.8-39.27-9.66-62.61-2.55-14.44,4.4-26.5,10.86-36.07,19.3a109.7,109.7,0,0,1,19.47-7.93c23.33-7.11,44.4-6.25,62.61,2.55s31.32,25.69,38.74,50,5.7,44.88-5.19,60.75A68.07,68.07,0,0,1,175,266.05c12.5-6.91,22-15,28.33-24.27,10.89-15.87,12.64-36.31,5.19-60.75S188,139.85,169.75,131Z" transform="translate(-46.74 -56.95)" style="fill:#2b7a77"/><path d="M788.45,363.39a29.8,29.8,0,1,0-8.36,59,30.67,30.67,0,0,0,9.38-.06,29.84,29.84,0,0,0-1-58.95Z" transform="translate(-46.74 -56.95)" style="fill:#3aaea9"/><path d="M808.15,374.94a28.9,28.9,0,0,0-19.7-11.55,31.5,31.5,0,0,0-7.68-.16,28.61,28.61,0,0,1,13.4,10,29.92,29.92,0,0,1-18.69,47.41c-.56.09-1.12.16-1.69.22a32.25,32.25,0,0,0,6.3,1.55,30.67,30.67,0,0,0,9.38-.06,30,30,0,0,0,18.68-47.4Z" transform="translate(-46.74 -56.95)" style="fill:#2b7a77"/><path d="M920.26,144.58c-15.65-19.2-38.59-31.06-68.16-35.25s-55,.8-75.69,14.84c-17.95,12.2-29.68,29.8-34.85,52.31a13.95,13.95,0,0,0,11.63,16.92l17.61,2.49a13.93,13.93,0,0,0,15.45-10.33c3.15-12.22,9-21.12,17.92-27.23C815,151,829,148.42,846,150.82s29.6,8.92,37.7,19.37,11,24.11,8.62,40.69c-3.24,22.86-12,37.32-25.94,43-14.72,6-36.64,6.81-65.2,2.47l-7.62-1.08a14,14,0,0,0-15.75,11.84l-9.41,66.38a13.95,13.95,0,0,0,11.84,15.75l17.87,2.53a13.94,13.94,0,0,0,15.75-11.84l6.09-43a1,1,0,0,1,1.1-.85c33.41,3.82,60,.06,79.12-11.2,20.3-12,32.82-33.76,37.21-64.74S936,163.87,920.26,144.58Z" transform="translate(-46.74 -56.95)" style="fill:#3aaea9"/><path d="M920.26,144.58c-15.65-19.2-38.59-31.06-68.16-35.25-18.31-2.59-35.05-1.66-50,2.75a135.08,135.08,0,0,1,25.72,1.28c29.58,4.19,52.51,16,68.16,35.24s21.48,44.73,17.11,75.59S896.14,277,875.84,288.93a82.85,82.85,0,0,1-19.7,8.24c17.45-1.19,32.18-5.29,44-12.27,20.3-12,32.82-33.76,37.21-64.74S936,163.87,920.26,144.58Z" transform="translate(-46.74 -56.95)" style="fill:#2b7a77"/><polygon points="768.04 608.14 777.88 605.36 793.7 629.33 777.88 629.33 768.35 624.47 768.04 608.14" style="fill:#292949"/><path d="M639.32,616.65s-13.74,10.07-13.56,19c0,0-1.46,18.73,2.25,26.11l20.67,18.82,38.18-2.44L699.18,624Z" transform="translate(-46.74 -56.95)" style="fill:#122307"/><path d="M681.22,628.68s-16.49-3.87-22.13,7.37l-11.23,20.74,19.79,26.36,149.93-.48-.3-17.9-48.51-13.69a30,30,0,0,0,10-12c3.84-8.27.84-14.39-2.25-22.16-1-2.38-5.47-15.58-9.35-14.55Z" transform="translate(-46.74 -56.95)" style="fill:#0f2b24"/><polygon points="546.13 366.81 539.21 354.47 544.35 351.28 550.96 358.68 552.69 356.04 557.33 367.32 552.43 371.36 546.13 366.81" style="fill:#a0734b"/><polygon points="646.65 395.35 599.1 408.13 557.04 362.98 547.73 371.48 586.46 446.14 644.54 434.37 646.65 395.35" style="fill:#eed5d5"/><path d="M646.53,586.49c10.35-28.8,12.35-59.34,16.07-89.58,1.1-8.92,2.26-18,6.25-26.09,4.58-9.25,11.82-14,20.14-16.41,10.6-3.11,23-2.5,33.89-2.81,10.35,0,18.23,39.19,28.17,58.38,6.09,11.76,12.42,22.2,16.37,34.94,3.79,12.23,7.41,24.67,9.44,37.33,3,19.11,12,32.68,2.83,38.85-.83.25-1.63.49-2.39.74a220.75,220.75,0,0,1-45.87,9.75,182,182,0,0,1-41.6-.57c-18.87-2.48-37.12-5.75-53.48-16.17Q641.43,600.67,646.53,586.49Z" transform="translate(-46.74 -56.95)" style="fill:#eed5d5"/><path d="M728.88,422.82c-5.31-18-31.07-25-37.78-4.54-2,6.15-3.32,12.71-2.3,19.1s4.71,12.62,10.55,15.41l.1,0c-.28,1.64-.57,3.28-.85,4.92a1.12,1.12,0,0,0,1.14,1.57l5.87,1.08a6.65,6.65,0,0,0,2.94.08c2.07-.59,3-3,3.17-5.18,0-.52,0-1,.06-1.56C723.56,450.14,732.35,434.58,728.88,422.82Z" transform="translate(-46.74 -56.95)" style="fill:#a0734b"/><path d="M698.24,391.42c-4.73-.87-8.93,3.61-13.39,5.89-3.72,1.89-7.87,2.29-11.71,3.84s-7.66,4.91-7.89,9.26c-3.76-2.12-7.85-4.3-12.17-3.61s-8.47,5.69-6.9,10c1.41,3.83,6.32,4.88,7.84,8.66,2.4,6-4.92,14.9-.25,19,1.12,1,2.68,1.25,3.78,2.26,1.37,1.24,1.75,3.32,2.32,5.18,2.57,8.4,10.77,14.11,19.09,13.27a22,22,0,0,0,11.52-12.74c2.44-6.8-1.16-9.32-1.57-15.8a28.13,28.13,0,0,1,6.65-19.8c3-3.47,7.24-6.41,11.63-6.69,1.78-.11,1.17,1.36,3.22.05a8.89,8.89,0,0,0,2.39-3.82C708.15,402.31,704.47,392.55,698.24,391.42Z" transform="translate(-46.74 -56.95)" style="fill:#292949"/><path d="M749.35,402.24c2.44.76,5.1.75,7.4,1.85,3.46,1.65,3.13,5.28,4,8.48,1,3.54,2.43,8.29,4.65,11.09,1.6,2,3.9,3.22,5.88,4.8s3.77,3.87,3.64,6.6-1.94,4.86-2.28,7.43c-.44,3.84.16,5.84-1.15,9.74-.68,2-1.44,4.14-3,5.47-2.07,1.76-4.93,1.63-7.43,1.13s-5.07-1.28-7.58-.53c-5.43,1.63-4.61,7.1-6.19,11.61-2.4,6.87-10.57,10.65-16.64,8-5.15-2.27-8-8.42-7.54-14.39.22-3,1.5-5.74,1.68-8.73s-1.32-6.94,1.37-9.15a21.75,21.75,0,0,0,2.08-1.42,4.2,4.2,0,0,0,.94-1.87,8.27,8.27,0,0,0-1.15-6.86c-1-1.35-2.39-2.36-2.95-4-.66-1.84,0-3.95.16-5.95.45-4.84-2-9.69-6-11.69-2.62-1.32-5-2.13-7.27-4.09-.34-.29-5.48-5.15-5.65-4.14a10.61,10.61,0,0,1,2.46-4.64,21.17,21.17,0,0,1,6.21-5.78c7.95-4.24,8,6.23,14.29,5,1.52-.28,2.7-1.63,4.08-2.41,2.62-1.47,5.76-.81,8.34.44S746.62,401.38,749.35,402.24Z" transform="translate(-46.74 -56.95)" style="fill:#292949"/><path d="M607,615.7a19.75,19.75,0,1,0-9.24,38.41,20.59,20.59,0,0,0,6.19.55,19.78,19.78,0,0,0,3-39Z" transform="translate(-46.74 -56.95)" style="fill:#3aaea9"/><path d="M619.3,624.56A19.15,19.15,0,0,0,607,615.7a20.72,20.72,0,0,0-5.06-.59,19.81,19.81,0,0,1-7.11,37.54l-1.14,0a21.71,21.71,0,0,0,4.07,1.42,20.59,20.59,0,0,0,6.19.55,19.89,19.89,0,0,0,15.32-30.1Z" transform="translate(-46.74 -56.95)" style="fill:#2b7a77"/><path d="M707.81,479.64c-9.12-13.65-23.5-22.93-42.75-27.56s-36.37-2.94-50.88,5c-12.62,6.92-21.46,17.79-26.29,32.32a9.23,9.23,0,0,0,6.6,11.9L606,504.07a9.25,9.25,0,0,0,10.85-5.85c2.85-7.86,7.28-13.37,13.54-16.83,7.58-4.19,17-5,28.07-2.32s19,7.75,23.65,15.16,5.72,16.6,3.12,27.39c-3.58,14.88-10.25,23.88-19.83,26.74-10.09,3-24.6,2.19-43.18-2.48l-5-1.19a9.25,9.25,0,0,0-11.14,6.82l-10.39,43.2a9.23,9.23,0,0,0,6.82,11.14l11.62,2.8a9.49,9.49,0,0,0,2.79.23,9.24,9.24,0,0,0,8.35-7l6.74-28a.66.66,0,0,1,.77-.5c21.81,4.64,39.61,3.83,52.92-2.39,14.15-6.62,23.78-20.2,28.63-40.37S717,493.36,707.81,479.64Z" transform="translate(-46.74 -56.95)" style="fill:#3aaea9"/><path d="M707.81,479.64c-9.12-13.65-23.5-22.93-42.75-27.56-11.92-2.87-23-3.31-33.19-1.34a89.34,89.34,0,0,1,16.89,2.46c19.25,4.64,33.63,13.91,42.75,27.56s11.35,30.87,6.51,51-14.48,33.75-28.63,40.37a54.94,54.94,0,0,1-13.52,4.2c11.59.31,21.57-1.46,29.82-5.32,14.15-6.62,23.78-20.2,28.63-40.37S717,493.36,707.81,479.64Z" transform="translate(-46.74 -56.95)" style="fill:#2b7a77"/><path d="M270,211.16a17.69,17.69,0,1,0-1,35.37,18.24,18.24,0,0,0,5.53-.65,17.72,17.72,0,0,0-4.5-34.72Z" transform="translate(-46.74 -56.95)" style="fill:#3aaea9"/><path d="M282.34,216.67A17.13,17.13,0,0,0,270,211.16a18.37,18.37,0,0,0-4.55.41,17,17,0,0,1,8.58,5,17.86,17.86,0,0,1-.74,25.09,17,17,0,0,1-7.16,4.12c-.32.1-.65.17-1,.25a19.36,19.36,0,0,0,9.36-.16,17.81,17.81,0,0,0,7.89-29.21Z" transform="translate(-46.74 -56.95)" style="fill:#2b7a77"/><path d="M333.28,73.29C322.77,63,308.45,57.51,290.71,57S258.28,61.11,247,70.76c-9.79,8.39-15.54,19.55-17.11,33.17a8.28,8.28,0,0,0,8,9.22l10.56.31a8.27,8.27,0,0,0,8.43-7.12c1.05-7.42,3.92-13.06,8.78-17.26,5.88-5.07,14-7.49,24.19-7.19s18.05,3.3,23.53,8.93,8.07,13.51,7.78,23.45c-.4,13.7-4.6,22.82-12.47,27.1-8.29,4.5-21.18,6.44-38.32,5.77l-4.57-.13a8.29,8.29,0,0,0-8.52,8l-1.16,39.8a8.27,8.27,0,0,0,8,8.51l10.71.31a8.18,8.18,0,0,0,2.49-.3,8.3,8.3,0,0,0,6-7.73l.75-25.77a.6.6,0,0,1,.59-.58c20,.05,35.44-3.93,46-11.84,11.19-8.41,17.14-22.09,17.68-40.67S343.83,83.64,333.28,73.29Z" transform="translate(-46.74 -56.95)" style="fill:#3aaea9"/><path d="M333.28,73.29C322.77,63,308.45,57.51,290.71,57c-11-.32-20.79,1.34-29.35,4.93A80.35,80.35,0,0,1,276.63,61c17.73.52,32.05,6,42.56,16.29s15.64,25,15.09,43.49S327.79,153,316.6,161.42a48.79,48.79,0,0,1-11.08,6.17c10.22-1.86,18.65-5.25,25.17-10.15,11.19-8.41,17.14-22.09,17.68-40.67S343.83,83.64,333.28,73.29Z" transform="translate(-46.74 -56.95)" style="fill:#2b7a77"/><polygon points="598.96 510.23 586.76 507.35 587.77 502.08 596.56 502.21 595.88 499.5 606.02 503.24 605.71 508.85 598.96 510.23" style="fill:#a0734b"/><polygon points="679.73 459.93 659.28 499.59 603.01 500.82 602.97 512 669.73 525.27 693.27 487.82 679.73 459.93" style="fill:#eed5d5"/><path d="M277.52,413.09,272,352.22l-14.23-.62L248,398.52l-11.84,19.75,18.11,17.46s15.39-9.53,17.38-10.21Z" transform="translate(-46.74 -56.95)" style="fill:#81b3ef"/><polygon points="224.08 295.21 223.99 279.22 214.28 274.25 205.02 280 210.71 287.62 215.96 294.86 224.08 295.21" style="fill:#eac1a4"/><path d="M1021,321.78,1004.16,263l-14.1,2.06-1.17,73,13.52,10.31s13.34-12.24,15.17-13.28Z" transform="translate(-46.74 -56.95)" style="fill:#2b514d"/><polygon points="956.27 206.22 953.18 190.53 942.72 187.47 934.7 194.85 941.71 201.27 948.23 207.4 956.27 206.22" style="fill:#eac1a4"/></g></svg>