<svg xmlns="http://www.w3.org/2000/svg" width="1615.69" height="967.98" viewBox="0 0 1615.69 967.98"><title>llAsset 1</title><g id="e90bec78-a216-461f-aca9-5b6fd96c2b36" data-name="Layer 2"><g id="a5cc0892-4041-4933-8f88-76ea9aa3737b" data-name="shadow"><path d="M1337,677.4c56.6,3.25,113.4-1.79,169.91,4.18,27.79,2.94,56.41,8,81.3,20,9.19,4.44,25.14,11.37,27.23,21.44,2.24,10.82-9.67,14.65-10.65,24.37-.66,6.57,8.07,15.92,9,23.44,1.9,15.82-6.87,30.15-16.94,42.44-18.88,23-7.08,42.53-16.15,71-3.37,10.59-4.21,22.35-8.91,32.18-26.23,54.84-363.31,50.51-450.14,51.11-197,1.35-394-.91-590.89-4.41-58.61-1-117.25-2.8-175.89-4-34.31-.72-68.63-1.28-102.93-1.41-51.48-.21-110.73,11-159.41-14.65-85-44.85,24.38-88.58,3-138.33l0,0c-9.43-21.94-48.37-24.57-65.71-30.05-8-2.53-16.44-5.38-22-12.69-29.71-38.82,33.9-80.08,58-85.53,48.89-11.05,102.11-5.69,151.62-6.52C590.91,663.59,965.48,656.08,1337,677.4Z" style="fill:#ededed"/></g><g id="e7cb4c1c-09c5-46ab-8b45-3c71bce55460" data-name="object"><polygon points="920.45 294.57 901.7 288.24 904.05 280.11 917.85 281.6 917.18 277.24 932.56 284.61 931.26 293.39 920.45 294.57" style="fill:#eed5b9"/><polygon points="1065.49 220.2 1013.47 277 924.64 278.36 924.46 296 1029.7 317.64 1103.31 254.44 1065.49 220.2" style="fill:#37404e"/><path d="M1116,186.75c2.19-4.46,2.54-9.69,1.88-14.66-1.41-10.64-7.92-21-17.71-24.75-15.06-5.82-32,4.73-47.68.94-1.38,6.34-2.72,12.79-2.4,19.29.67,13.87,9.53,27,22,32.54a36.28,36.28,0,0,0,38-5.88A24.61,24.61,0,0,0,1116,186.75Z" style="fill:#eed5b9"/><polygon points="1055.68 153.72 1105.63 156.03 1108.92 195.03 1124.58 186.35 1127.62 123.94 1058.73 110.97 1025.88 123.56 1024.23 141.37 1048 163.83 1055.68 153.72" style="fill:#7f634a"/><path d="M1066.1,217.07l56.12-9.16S1170.91,258,1197.78,334s-15.52,187.48-15.52,187.48-154.43-21.71-179.76-25.07l39.8-157.73Z" style="fill:#37404e"/><path d="M1099.07,197.79a59.09,59.09,0,0,0,6.17,12.75L1083.59,215q-1.58-7.62-3.14-15.25l16.16-1.09Z" style="fill:#eed5b9"/><path d="M655.29,74.46c-1.22,1.68-1.64,4.54-1.66,7.86C654.18,79.7,654.74,77.08,655.29,74.46Z" style="fill:none"/><polygon points="549.03 653.03 547.96 656.43 544.4 667.71 563.41 686.09 578.25 678.36 570.52 663.53 569.68 662.72 568.89 663.94 549.03 653.03" style="fill:#756758"/><path d="M651.66,355.43c-10.6,2-21.42,4.88-30.87,10.28a88,88,0,0,0-12.07,8.75l-.83,127.38-60,150.58L549,653l2.48-7.88,18.17,17.57,110-169.65,5.81-20.71L665.61,353.05C660.94,353.74,656.28,354.53,651.66,355.43Z" style="fill:#2f435f"/><polygon points="549.03 653.03 568.89 663.94 569.68 662.72 551.51 645.14 549.03 653.03" style="fill:#2f435f"/><path d="M695.4,437.08l-9.9,35.28,2.26,13.58,13.82,179.59h.12v-2.6h22.13l28.07-192-1.36-117.52c-5.14-.54-28.39-2.88-44.61-3.22Z" style="fill:#2f435f"/><path d="M705.93,350.15c-2.16,0-4.2-.06-6,0a270.09,270.09,0,0,0-34.27,2.93L685.5,472.36l9.9-35.28Z" style="fill:#2f435f"/><polygon points="701.7 665.53 701.7 674.75 725.36 686.58 737.18 674.75 725.36 662.93 723.83 662.93 723.45 665.53 701.7 665.53" style="fill:#756758"/><polygon points="701.7 665.53 723.45 665.53 723.83 662.93 701.7 662.93 701.7 665.53" style="fill:#756758"/><path d="M684.11,123.24c.84-3.09,1.71-6.09,4.37-7.64,2.41-1.42,5.47-1,8.11-1.93,5-1.72,7.12-7.44,8.65-12.48q2-6.57,4-13.14A59.23,59.23,0,0,0,710.79,82c-7.56-2.82-14.64-8-22.53-10-8.86-2.22-25-5.5-32.52,1.92a4.65,4.65,0,0,0-.45.53c-.55,2.62-1.11,5.24-1.66,7.86,0,7.4,2,17.07,1.72,21a18.81,18.81,0,0,1-3.15-1.42c2.31,3.73,7.14,6.06,11.47,7.77a101.16,101.16,0,0,0-1.7,16.2l.78.11c7.19-.93,14.41-1.59,20.72-2.64Z" style="fill:#edd4b9"/><path d="M651.44,92.7l2.19-10.38c0-3.32.44-6.18,1.66-7.86l1-4.67c.55-2.64,1.14-5.36,2.67-7.58,2.69-3.91,7.67-5.47,12.37-6.11,12-1.63,24.85,1.43,33.79,9.56a18.47,18.47,0,0,1,5.48,7.81,17.41,17.41,0,0,1,.2,8.52A31.31,31.31,0,0,0,716,83.48c6.91,1.31,15.9-1.77,21.94-5.14,7.45-4.17,11.32-17,15.85-23.82a50.44,50.44,0,0,1,4-5.36c3.19-3.65,7.07-6.74,9.68-10.83s3.68-9.71.87-13.66c-1.81-2.56-4.85-3.91-7.81-4.9A58,58,0,0,0,730,18.08c-9.6,2.07-18.26,5.76-27.7,1.84-8.87-3.69-15.41-2.57-24.94.44-10.3,3.26-24,3.61-33.39,8.39a27.22,27.22,0,0,0-9.64,8.84,41,41,0,0,0-1.71,43.27,58.44,58.44,0,0,0,6.08,8.27C642.56,93.62,647,99,652.2,101.9a9,9,0,0,1-1.3-3.59A16.9,16.9,0,0,1,651.44,92.7Z" style="fill:#41352b"/><path d="M653.63,82.32,651.44,92.7a16.9,16.9,0,0,0-.54,5.61,9,9,0,0,0,1.3,3.59,18.81,18.81,0,0,0,3.15,1.42C655.6,99.39,653.6,89.72,653.63,82.32Z" style="fill:#41352b"/><path d="M710.59,73.47a18.47,18.47,0,0,0-5.48-7.81c-8.94-8.13-21.82-11.19-33.79-9.56-4.7.64-9.68,2.2-12.37,6.11-1.53,2.22-2.12,4.94-2.67,7.58l-1,4.67a4.65,4.65,0,0,1,.45-.53c7.48-7.42,23.66-4.14,32.52-1.92,7.89,2,15,7.16,22.53,10A17.41,17.41,0,0,0,710.59,73.47Z" style="fill:#41352b"/><polygon points="567.46 26.4 572.09 16.78 570.55 14.76 567.99 16.55 569.55 7.47 565.82 0.98 555.91 0 547.22 5.49 547.28 15.43 553.27 25.63 554.55 29.64 568.61 29.55 567.46 26.4" style="fill:#edd4b9"/><path d="M841.89,308.57c-3.65-5.26-16-8.78-21.63-12-12.47-7.21-24.46-15.44-35-25.33a127.76,127.76,0,0,1-33-50.71,220.24,220.24,0,0,1-8.1-30.13c-.75-3.68-1.43-7.38-2.08-11.09l44-1.08L727.92,118l-.21,3.25a17,17,0,0,1,.21-3.25c-14.79,5.88-28.83,2.88-43.81,5.2l-.64.1c-6.31,1-13.53,1.71-20.72,2.64-8.06,1-16.08,2.39-22.76,5a23.48,23.48,0,0,0-5.75,3.28l-42.1-36.68L574.4,29.51l-5.79,0-14.06.09-5,0,11.87,109,43.33,60.24c-2.67,11.5-4.93,23-5.93,29.62-2.52,16.58-4.85,33.2-6.66,49.88-2,18.62-3.42,37.31-3.71,56,0,2.08-.34,7.91-.48,14.89-.31,14.7.13,34.5,5.42,35.23a4.67,4.67,0,0,0,2.81-.89,97.16,97.16,0,0,0,12.57-9.23,88,88,0,0,1,12.07-8.75c9.45-5.4,20.27-8.27,30.87-10.28,4.62-.9,9.28-1.69,14-2.38a270.09,270.09,0,0,1,34.27-2.93c1.85,0,3.89,0,6,0,16.22.34,39.47,2.68,44.61,3.22l1,.11c9.86-1.77,19.28-5.39,28.73-8.76,16.23-5.77,32.8-10.86,48-19C833.22,323.18,846.7,315.51,841.89,308.57Z" style="fill:#89a89b"/><path d="M948.27,321.83c-4.35,0-8.67.16-12.95.45-14.47-82.92-87.71-146-175.9-146A179.31,179.31,0,0,0,652,211.72a188.39,188.39,0,0,0-163.67-94.15c-103.84,0-188,83-188,185.48a185,185,0,0,0,1,19.22c-4.26-.28-8.56-.44-12.9-.44-103.84,0-188,83-188,185.48s84.18,185.48,188,185.48H948.27c103.84,0,188-83,188-185.48S1052.11,321.83,948.27,321.83Z" style="fill:#dde9ed"/><path d="M755.26,171.87l13.68-4.78s10.56.86,12.93,3.7l4.16,11-15.09,12.59-13.33-6.69Z" style="fill:#edd4b9"/><path d="M604.27,567.54l-28.8,3.65-12.08-95.34A76,76,0,1,0,412.6,495l12.07,95.33-28.81,3.65-12.07-95.34A105,105,0,1,1,592.2,472.2Z" style="fill:#686867"/><path d="M666.64,706.25a11.26,11.26,0,0,1-9.75,12.6L382.63,753.58A11.27,11.27,0,0,1,370,743.82L347.46,565.45a11.25,11.25,0,0,1,9.75-12.59l274.26-34.73a11.27,11.27,0,0,1,12.59,9.76Z" style="fill:#ffd664"/><path d="M666.64,706.25,652.8,597C609,721.4,445.5,730.18,373,750.08a11.23,11.23,0,0,0,9.62,3.5l274.26-34.73A11.26,11.26,0,0,0,666.64,706.25Z" style="fill:#ffcb48"/><path d="M527.73,602.52a24.71,24.71,0,1,0-36.59,24.64l-.78,56.47L535.12,678l-14.83-54.49A24.68,24.68,0,0,0,527.73,602.52Z" style="fill:#444"/><path d="M186.55,357.51a35.1,35.1,0,0,0,11,6.93c.23,3,.65,6.47,1.64,8.49-4.41.43-8.66.9-12.57,1.26-.13-3.07-.25-6.12-.37-9.17A48.25,48.25,0,0,1,186.55,357.51Z" style="fill:none"/><polygon points="177.4 890.72 178.28 891.3 187.09 902.2 176.82 911.18 158.47 899.31 159.2 889.37 159.42 886.37 177.07 891.92 177.4 890.72" style="fill:#9c897a"/><path d="M177.33,673.94,158.44,886.07l1,.3,17.65,5.55.33-1.2,43.9-162.44-.25-55.34Q199.2,673.69,177.33,673.94Z" style="fill:#515151"/><path d="M274.36,678.4,263.31,893.31l-17.86.49.06,2.2h-.1l-17.1-212.87C230.54,683,261.27,681.09,274.36,678.4Z" style="fill:#515151"/><polygon points="263.31 891.31 264.54 891.27 274.36 901.02 265.09 911.28 245.73 901.8 245.51 894 263.06 893.52 263.31 891.31" style="fill:#9c897a"/><path d="M240.54,318.93a105.48,105.48,0,0,0-1.43-10.81c-1.6-8.83-5.49-15.16-10.64-19.28-1.2,4.59-4.46,8.36-7.7,11.89l-.39.42c-8.42,9.11-17,18.23-23.54,28.76-5.23,8.39-9.16,17.84-10.29,27.6a35.1,35.1,0,0,0,11,6.93c.23,3,.65,6.47,1.64,8.49a3.9,3.9,0,0,0,.83,1.21c2.59,2.42,11.06.46,14.37-.2a5,5,0,0,0,2.56-1.05,2.53,2.53,0,0,0,.6-1.08c.57-1.69.56-4.64.65-7.34,10-3.73,17.21-13.09,20.33-23.31A60.06,60.06,0,0,0,240.54,318.93Z" style="fill:#efd9c5"/><path d="M328.9,664.26c-17.57-22.92-16.67-61.65-20.72-88.94-4.17-28.1-8.37-56.27-15.3-83.8-.67-2.64-1.35-5.28-2.07-7.92q-2.42-8.82-5.25-17.52a392.49,392.49,0,0,0-15.18-39.46c-6.29-14-14-37.08-25.36-47.7-.38-.35-.77-.68-1.18-1-6.15-4.8-15.83-6.16-26.29-6.1a2.53,2.53,0,0,1-.6,1.08,5,5,0,0,1-2.56,1.05c-3.31.66-11.78,2.62-14.37.2a3.9,3.9,0,0,1-.83-1.21c-4.41.43-8.66.9-12.57,1.26.9,21.32,2.3,43,8.36,63.68.15.5.29,1,.44,1.52,7.78,25.48,14.11,51.5,21.14,77.19.62,2.27,1.24,4.55,1.83,6.84,2.42,9.43,4.25,19.05,3,28.64a38.55,38.55,0,0,1-1.56,6.91,34.12,34.12,0,0,1-8.65,14.16,25,25,0,0,1-7.38,4.91,23.9,23.9,0,0,1-3,1c-4.4-6.73-15.24-.26-17.91,7.32s-3.17,17.17-10.15,21.17c-5.5,3.15-12.55,1.74-19.51.8-4.33-.58-8.63-1-12.51,0-3.64.93-7.11,3-10.39,4.15-6.55,19.05-17.46,34.76-34.37,50.09-3.58,3.24-7.69,7.43-6.47,12.1.74,2.82,3.26,4.76,5.7,6.34,24.14,15.6,54.65,16.46,83.39,16.16h.32q21.87-.24,43.72-1,7.37-.26,14.72-.57l6.68-.27a253.77,253.77,0,0,0,39.37-4.46c15.91-3.27,31.29-8.76,44.34-18.15,1.5-1.08,3.1-2.46,3.16-4.31C331,666.87,329.86,665.52,328.9,664.26Z" style="fill:#b26650"/><polygon points="393.02 458.54 401 452.37 403.17 453.4 402.01 456.12 410.1 452.89 416.82 455.07 419.67 464.03 416.31 473.14 407.11 475.03 396.51 471.5 390.34 470.88 392.02 458.4 393.02 458.54" style="fill:#efd9c5"/><polygon points="392.81 474.36 392.25 453.81 301.07 431.18 243.84 377.91 240.26 434.92 288.79 467.12 392.81 474.36" style="fill:#b26650"/><polygon points="369.28 504.94 377.42 499 379.56 500.08 378.33 502.77 386.5 499.77 393.17 502.12 395.77 511.16 392.15 520.18 382.91 521.81 372.42 517.99 366.26 517.21 368.28 504.77 369.28 504.94" style="fill:#efd9c5"/><polygon points="369.27 520.75 368.71 500.2 277.54 477.58 186.62 374.19 150.28 425.59 265.25 513.52 369.27 520.75" style="fill:#ba6b54"/><path d="M245.08,298.43a31.76,31.76,0,0,0-16.36-23.64c-.76.4-1.5.83-2.22,1.28a24,24,0,0,0-2.51-3.69c-5.62-6.75-12.32-10.14-20.88-10.41-30.05-1-52.78,16.66-61.53,45.94-7.4,24.75-4.21,51.23-2.79,77,2.12,38.79-6.18,83.55-29.16,115.34-9.37,13-19.59,25.94-23.48,41.44s.62,34.5,14.76,41.94c5.53,2.91,12.11,3.89,16.91,7.88a10.39,10.39,0,0,1,.76,15.75c3.64,6.45,7.55,6.66,11.76,5.24,3.28-1.11,6.75-3.22,10.39-4.15,3.88-1,8.18-.59,12.51,0,7,.94,14,2.35,19.51-.8,7-4,7.49-13.58,10.15-21.17s13.51-14,17.91-7.32a23.9,23.9,0,0,0,3-1,25,25,0,0,0,7.38-4.91A34.12,34.12,0,0,0,219.86,559a38.55,38.55,0,0,0,1.56-6.91c1.22-9.59-.61-19.21-3-28.64-.59-2.29-1.21-4.57-1.83-6.84-7-25.69-13.36-51.71-21.14-77.19-.15-.5-.29-1-.44-1.52-6.06-20.67-7.46-42.36-8.36-63.68-.13-3.07-.25-6.12-.37-9.17a48.25,48.25,0,0,1,.3-7.51c1.13-9.76,5.06-19.21,10.29-27.6,6.56-10.53,15.12-19.65,23.54-28.76l.39-.42c3.24-3.53,6.5-7.3,7.7-11.89,5.15,4.12,9,10.45,10.64,19.28a105.48,105.48,0,0,1,1.43,10.81A31.78,31.78,0,0,0,245.08,298.43Z" style="fill:#515151"/><polygon points="979.64 351.69 959.89 352.88 959.01 344.47 972.36 340.65 970.09 336.86 987.12 337.9 989.21 346.52 979.64 351.69" style="fill:#eed5b9"/><polygon points="1091.82 235.2 1065.95 308.12 981.47 335.61 986.5 352.52 1093.44 342.16 1153.23 247.23 1122.22 207.91 1091.82 235.2" style="fill:#4a5669"/><polygon points="1495.2 621.75 1470.61 730.96 1448.01 860.89 1425.16 860.89 1415.81 544.75 1491.38 546.12 1495.2 621.75" style="fill:#383e49"/><polygon points="1350.51 615.08 1347.34 721.08 1379.26 860.89 1399.78 860.89 1401.87 713.45 1424.32 592.78 1429.9 554.26 1366.98 546.84 1350.51 615.08" style="fill:#383e49"/><path d="M1400.28,329.9l71.33,5.26,38.54,66.45c-11.33,40.38-6.75,26.24-13.65,62.74l20.4,100.5-26.62,7.75-96.7,1.72-31.8-5.56,8.7-95.89-4.51-128Z" style="fill:#abadb2"/><polygon points="1386.22 382.14 1350.35 437.52 1251.17 448.37 1248.31 432.04 1327.49 401.18 1365.96 344.82 1386.22 382.14" style="fill:#abadb2"/><path d="M1404.06,268.38c10.82-31.45,52.34-19.66,60.9,8.34,5.58,18.27-8.52,42-27.45,47.23a16.41,16.41,0,0,0-.15,2,63.12,63.12,0,0,1-.81,8.75c-.16,1.09-16.73-2.09-18.58-2.45a2.54,2.54,0,0,1-1.71-.85c-.67-1,.42-4.1.54-5.26.14-1.36.28-2.73.43-4.09-9.34-4.56-15.23-14.27-16.88-24.15S1400.81,277.84,1404.06,268.38Z" style="fill:#bf9e6c"/><path d="M1433.86,239.07c2.05,2.42,2.69,5.63,3.1,8.7a13.3,13.3,0,0,1-.09,5.48c-2.08,7-9.12,6.09-14.75,8a36.46,36.46,0,0,0-17.38,12.8c-6.62,8.94-4.89,21.24-3.28,31.78.56,3.72,1.85,9.28-1.23,12.32s-9.74,2.08-13.06.11c-3-1.8-5.4-4.87-8.82-5.71-3.61-.9-8.68.34-10.13-3.15-.4-1-.36-2.12-.89-3-1.8-3-7.09,0-9.79-2.3-1.66-1.38-1.44-4.06-.69-6.13s1.92-4.13,1.67-6.31c-.22-1.88-1.44-3.44-2.13-5.19a9.84,9.84,0,0,1,2.15-10.35c4.91-4.88,13.55-3.22,18.76-7.76,2.71-2.37,4-6,5.17-9.4s2.61-7,5.48-9.17c3.54-2.67,8.3-1.8,11.84-5,2.08-1.89,3.57-4.44,5.87-6.05,3-2.11,8.73-3.49,12.37-4.41A15.58,15.58,0,0,1,1433.86,239.07Z" style="fill:#4f4141"/><path d="M1456.24,291.11c-.59,10.34-6.57,21.11-2.5,30.56s15.94,12.09,26.09,13.35c1.68.2,23.05,3.7,23.17,3.3,2.16-7.07,4.39-14.27,8.62-20.3s10.92-10.78,18.15-10.68c-2-.52-2.9-3.14-2.49-5.27s1.66-4,2.45-6a14.51,14.51,0,0,0-2.66-14.81c-7.08-7.67-21.1-5.77-27-14.42-3.66-5.36-2.62-12.65-4.27-19-3.19-12.24-16.06-15.73-25.41-21.86-9.87-6.47-19.33-10.32-31.38-9.25-14.93,1.34-27,15.51-22.41,30.07,5.91,18.67,35.18,19.32,39.24,38.13A22.56,22.56,0,0,1,1456.24,291.11Z" style="fill:#4f4141"/><polygon points="1448.01 333.49 1426.98 363.2 1417.1 362.4 1403.68 330.13 1448.01 333.49" style="fill:#d1d6d6"/><polygon points="1425.16 860.89 1412.98 876.56 1424.32 888.96 1440.22 874.92 1448.01 860.89 1425.16 860.89" style="fill:#766a5a"/><polygon points="1377.65 860.89 1365.47 876.56 1376.81 888.96 1392.72 874.92 1400.51 860.89 1377.65 860.89" style="fill:#766a5a"/><path d="M890.11,585.52q4.68,0,9.29.32c10.38-59.48,62.92-104.73,126.17-104.73a128.57,128.57,0,0,1,77.06,25.43A135.12,135.12,0,0,1,1220,439c74.48,0,134.87,59.57,134.87,133a133.58,133.58,0,0,1-.72,13.79q4.59-.32,9.25-.32c74.49,0,134.87,59.57,134.87,133.05s-60.38,133-134.87,133H890.11c-74.48,0-134.87-59.57-134.87-133S815.63,585.52,890.11,585.52Z" style="fill:#b0cdd1"/><polygon points="1302.87 507.69 1282.95 509.89 1282.1 516.77 1269.59 525.31 1274.9 533.34 1300.72 525.09 1302.87 507.69" style="fill:#bf9e6c"/><polygon points="1510.15 401.61 1438.04 477.51 1405.39 489.85 1299.16 527.91 1301.18 503.58 1407.91 446.94 1469.27 335.18 1497.43 350.67 1510.15 401.61" style="fill:#b3b5ba"/><path d="M1221.69,433.12l13.68-4.78s10.56.85,12.94,3.7l4.15,11-15.08,12.59L1224,449Z" style="fill:#bf9e6c"/></g></g></svg>