<svg id="Layer_1" enable-background="new 0 0 512 512" height="512" viewBox="0 0 512 512" width="512" xmlns="http://www.w3.org/2000/svg"><path d="m38 0c-8.284 0-15 6.716-15 15v68.829l83.829-83.829z"/><path d="m113.042 90v-53.787l-53.788 53.787z"/><path d="m251.949 238.325 103.499-36.738c4.845-1.72 9.91-2.593 15.053-2.593 4.246 0 8.438.604 12.499 1.78v-185.774c0-8.284-6.716-15-15-15h-224.958v105c0 8.284-6.716 15-15 15h-105c-.014 0-.028-.001-.042-.002v321.002c0 8.284 6.716 15 15 15h203.248c-12.301-23.041-19.246-49.248-19.246-76.841v-98.426c0-19.008 12.035-36.05 29.947-42.408zm-63.908-178.325h120.001c8.284 0 15 6.716 15 15s-6.716 15-15 15h-120.001c-8.284 0-15-6.716-15-15s6.716-15 15-15zm-121.041 246h40c8.284 0 15 6.716 15 15s-6.716 15-15 15h-40c-8.284 0-15-6.716-15-15s6.716-15 15-15zm110 89.999h-110c-8.284 0-15-6.716-15-15s6.716-15 15-15h110c8.284 0 15 6.716 15 15s-6.715 15-15 15zm11.041-245.997c-8.284 0-15-6.716-15-15s6.716-15 15-15h71c8.284 0 15 6.716 15 15s-6.716 15-15 15z"/><path d="m479.018 266.597-103.499-36.738c-3.246-1.152-6.789-1.152-10.035 0l-103.499 36.738c-5.984 2.124-9.982 7.786-9.982 14.136v98.426c0 67.035 50.113 124.091 116.568 132.716.641.083 1.286.125 1.931.125s1.29-.042 1.931-.125c66.454-8.625 116.567-65.681 116.567-132.716v-98.426c0-6.35-3.998-12.012-9.982-14.136zm-57.871 96.509-42 42c-2.929 2.929-6.768 4.394-10.606 4.394s-7.678-1.464-10.606-4.394l-22.5-22.5c-5.858-5.858-5.858-15.355 0-21.213 5.857-5.858 15.355-5.858 21.213 0l11.894 11.894 31.394-31.394c5.857-5.858 15.355-5.858 21.213 0 5.857 5.858 5.857 15.356-.002 21.213z"/></svg>