<svg id="Capa_1" enable-background="new 0 0 512 512" height="512" viewBox="0 0 512 512" width="512" xmlns="http://www.w3.org/2000/svg"><path d="m328.302 0h-144.602c-23.023 0-42.787 14.183-51.041 34.267h246.686c-8.254-20.084-28.02-34.267-51.043-34.267z"/><path d="m392.567 64.267h-273.132c-30.42 0-55.168 24.748-55.168 55.167v377.566c0 8.284 6.717 15 15 15h97.467v-71.233c0-30.419 24.748-55.167 55.168-55.167h48.199c30.42 0 55.166 24.748 55.166 55.167v71.233h97.467c8.285 0 15-6.716 15-15v-377.566c-.001-30.419-24.747-55.167-55.167-55.167zm-222.359 282.673c-2.789 2.79-6.658 4.391-10.609 4.391-3.939 0-7.811-1.601-10.6-4.391-2.801-2.79-4.4-6.66-4.4-10.609 0-3.941 1.6-7.811 4.4-10.601 2.789-2.79 6.65-4.399 10.6-4.399 3.951 0 7.82 1.609 10.609 4.399 2.791 2.79 4.391 6.65 4.391 10.601 0 3.948-1.6 7.818-4.391 10.609zm0-64.27c-2.789 2.8-6.658 4.399-10.609 4.399-3.939 0-7.811-1.6-10.6-4.399-2.801-2.79-4.4-6.66-4.4-10.601 0-3.949 1.6-7.819 4.4-10.609 2.789-2.79 6.65-4.391 10.6-4.391 3.951 0 7.82 1.601 10.609 4.391 2.791 2.79 4.391 6.66 4.391 10.609 0 3.941-1.6 7.811-4.391 10.601zm0-64.261c-2.799 2.79-6.658 4.391-10.609 4.391-3.939 0-7.811-1.601-10.6-4.391-2.801-2.789-4.4-6.659-4.4-10.609s1.6-7.82 4.4-10.61c2.789-2.79 6.66-4.39 10.6-4.39 3.951 0 7.811 1.6 10.609 4.39 2.791 2.79 4.391 6.66 4.391 10.61s-1.6 7.82-4.391 10.609zm0-64.269c-2.789 2.79-6.658 4.39-10.609 4.39-3.939 0-7.811-1.6-10.609-4.39-2.791-2.79-4.391-6.66-4.391-10.61 0-3.949 1.6-7.81 4.391-10.6 2.799-2.8 6.66-4.4 10.609-4.4 3.951 0 7.82 1.601 10.609 4.4 2.791 2.79 4.391 6.65 4.391 10.6s-1.6 7.82-4.391 10.61zm64.262 192.8c-2.791 2.79-6.66 4.391-10.602 4.391-3.949 0-7.818-1.601-10.609-4.391-2.789-2.79-4.391-6.66-4.391-10.609 0-3.95 1.602-7.811 4.391-10.601 2.791-2.79 6.66-4.399 10.609-4.399 3.951 0 7.811 1.609 10.602 4.399 2.799 2.79 4.398 6.65 4.398 10.601 0 3.948-1.599 7.818-4.398 10.609zm.01-64.27c-2.801 2.8-6.66 4.399-10.611 4.399-3.949 0-7.809-1.6-10.609-4.399-2.789-2.79-4.391-6.66-4.391-10.601 0-3.949 1.602-7.819 4.391-10.609 2.801-2.79 6.66-4.391 10.609-4.391 3.951 0 7.811 1.601 10.611 4.391 2.789 2.79 4.389 6.66 4.389 10.609-.001 3.951-1.6 7.811-4.389 10.601zm0-64.261c-2.801 2.79-6.66 4.391-10.611 4.391-3.949 0-7.809-1.601-10.609-4.391-2.789-2.789-4.391-6.659-4.391-10.609s1.602-7.82 4.391-10.61c2.801-2.79 6.66-4.39 10.609-4.39 3.941 0 7.811 1.6 10.611 4.39 2.789 2.79 4.389 6.66 4.389 10.61-.001 3.95-1.6 7.82-4.389 10.609zm0-64.269c-2.801 2.79-6.66 4.39-10.611 4.39-3.949 0-7.818-1.6-10.609-4.39-2.789-2.79-4.391-6.66-4.391-10.61 0-3.949 1.602-7.81 4.391-10.6 2.791-2.8 6.66-4.4 10.609-4.4 3.951 0 7.82 1.601 10.611 4.4 2.789 2.79 4.389 6.66 4.389 10.6-.001 3.95-1.6 7.81-4.389 10.61zm64.259 192.8c-2.791 2.79-6.66 4.391-10.611 4.391-3.939 0-7.809-1.601-10.6-4.391-2.789-2.79-4.389-6.66-4.389-10.609 0-3.95 1.6-7.811 4.389-10.601 2.791-2.79 6.66-4.399 10.6-4.399 3.951 0 7.82 1.609 10.611 4.399 2.799 2.79 4.4 6.66 4.4 10.601.001 3.948-1.601 7.818-4.4 10.609zm0-64.27c-2.791 2.8-6.66 4.399-10.611 4.399-3.939 0-7.809-1.6-10.6-4.399-2.789-2.79-4.389-6.66-4.389-10.601 0-3.949 1.6-7.819 4.389-10.609 2.791-2.79 6.66-4.391 10.6-4.391 3.951 0 7.82 1.601 10.611 4.391 2.799 2.79 4.4 6.66 4.4 10.609.001 3.941-1.601 7.811-4.4 10.601zm-25.599-74.87c0-3.95 1.6-7.82 4.389-10.61 2.791-2.79 6.66-4.39 10.611-4.39 3.939 0 7.809 1.6 10.6 4.39 2.789 2.79 4.389 6.66 4.389 10.61s-1.6 7.82-4.389 10.609c-2.791 2.79-6.66 4.391-10.6 4.391-3.951 0-7.82-1.601-10.611-4.391-2.79-2.789-4.389-6.659-4.389-10.609zm25.599-53.66c-2.791 2.79-6.65 4.39-10.6 4.39-3.951 0-7.82-1.6-10.611-4.39-2.789-2.79-4.389-6.66-4.389-10.61 0-3.949 1.6-7.81 4.389-10.6 2.791-2.8 6.66-4.4 10.611-4.4 3.949 0 7.809 1.601 10.6 4.4 2.789 2.79 4.4 6.65 4.4 10.6.001 3.95-1.611 7.82-4.4 10.61zm64.27 192.8c-2.789 2.79-6.66 4.391-10.609 4.391-3.941 0-7.811-1.601-10.6-4.391-2.801-2.79-4.4-6.66-4.4-10.609 0-3.941 1.6-7.811 4.4-10.601 2.789-2.79 6.648-4.399 10.6-4.399 3.949 0 7.82 1.609 10.609 4.399 2.791 2.79 4.391 6.65 4.391 10.601-.001 3.948-1.6 7.818-4.391 10.609zm0-64.27c-2.789 2.8-6.66 4.399-10.609 4.399-3.951 0-7.811-1.6-10.6-4.399-2.801-2.79-4.4-6.66-4.4-10.601 0-3.949 1.6-7.819 4.4-10.609 2.789-2.79 6.648-4.391 10.6-4.391 3.949 0 7.82 1.601 10.609 4.391 2.791 2.79 4.391 6.66 4.391 10.609-.001 3.941-1.6 7.811-4.391 10.601zm0-64.261c-2.801 2.79-6.66 4.391-10.609 4.391-3.941 0-7.811-1.601-10.6-4.391-2.801-2.789-4.4-6.659-4.4-10.609s1.6-7.82 4.4-10.61c2.789-2.79 6.658-4.39 10.6-4.39 3.949 0 7.809 1.6 10.609 4.39 2.791 2.79 4.391 6.66 4.391 10.61-.001 3.95-1.6 7.82-4.391 10.609zm0-64.269c-2.801 2.79-6.66 4.39-10.609 4.39-3.951 0-7.811-1.6-10.6-4.39-2.801-2.79-4.4-6.66-4.4-10.61 0-3.949 1.6-7.81 4.4-10.6 2.789-2.8 6.648-4.4 10.6-4.4 3.949 0 7.82 1.601 10.609 4.4 2.791 2.79 4.391 6.65 4.391 10.6-.001 3.95-1.6 7.82-4.391 10.61z"/><path d="m280.101 415.6h-9.1v96.4h34.266v-71.233c0-13.877-11.289-25.167-25.166-25.167z"/><path d="m206.733 440.767v71.233h34.268v-96.4h-9.1c-13.877 0-25.168 11.29-25.168 25.167z"/></svg>