<?xml version="1.0" encoding="iso-8859-1"?>
<!-- Generator: Adobe Illustrator 19.0.0, SVG Export Plug-In . SVG Version: 6.00 Build 0)  -->
<svg version="1.1" id="Capa_1" xmlns="http://www.w3.org/2000/svg" xmlns:xlink="http://www.w3.org/1999/xlink" x="0px" y="0px"
	 viewBox="0 0 512 512" style="enable-background:new 0 0 512 512;" xml:space="preserve">
<g>
	<g>
		<path d="M151,61c-49.629,0-90,40.371-90,90c0,49.629,40.371,90,90,90c49.629,0,90-40.371,90-90C241,101.371,200.629,61,151,61z"/>
	</g>
</g>
<g>
	<g>
		<path d="M361,61c-49.629,0-90,40.371-90,90c0,49.629,40.371,90,90,90c49.629,0,90-40.371,90-90C451,101.371,410.629,61,361,61z"/>
	</g>
</g>
<g>
	<g>
		<path d="M444.798,236.649C423.148,257.835,393.611,271,361,271c-26.889,0-51.4-9.302-71.409-24.318
			C315.897,278.544,331,318.677,331,361v75c0,5.284-1.082,10.285-2.763,15H497c8.291,0,15-6.709,15-15v-75
			C512,309.307,484.708,263.634,444.798,236.649z M436,361h-30c-8.291,0-15-6.709-15-15c0-8.291,6.709-15,15-15h30
			c8.291,0,15,6.709,15,15C451,354.291,444.291,361,436,361z"/>
	</g>
</g>
<g>
	<g>
		<path d="M234.798,236.649C213.148,257.835,183.611,271,151,271c-32.611,0-62.148-13.165-83.798-34.351
			C27.292,263.634,0,309.307,0,361v75c0,8.291,6.709,15,15,15h271c8.291,0,15-6.709,15-15v-75
			C301,309.307,274.708,263.634,234.798,236.649z M151,408.959l-14.341-21.519L149.008,301h3.984l12.349,86.44L151,408.959z"/>
	</g>
</g>
<g>
</g>
<g>
</g>
<g>
</g>
<g>
</g>
<g>
</g>
<g>
</g>
<g>
</g>
<g>
</g>
<g>
</g>
<g>
</g>
<g>
</g>
<g>
</g>
<g>
</g>
<g>
</g>
<g>
</g>
</svg>
