<svg height="512pt" viewBox="0 -51 512 512" width="512pt" xmlns="http://www.w3.org/2000/svg"><path d="m377 106c-24.8125 0-45 20.1875-45 45s20.1875 45 45 45 45-20.1875 45-45-20.1875-45-45-45zm0 0"/><path d="m497 0h-482c-8.285156 0-15 6.714844-15 15v380c0 8.285156 6.714844 15 15 15h482c8.285156 0 15-6.714844 15-15v-380c0-8.285156-6.714844-15-15-15zm-296.394531 335.605469c-2.925781 2.929687-6.765625 4.394531-10.605469 4.394531s-7.679688-1.464844-10.605469-4.394531l-24.394531-24.390625-24.394531 24.390625c-5.855469 5.859375-15.355469 5.859375-21.210938 0-5.859375-5.855469-5.859375-15.351563 0-21.210938l24.390625-24.394531-10.605468-10.605469c-17.542969-17.546875-17.542969-46.097656 0-63.640625 17.546874-17.546875 46.09375-17.546875 63.640624 0 17.542969 17.546875 17.542969 46.09375 0 63.640625l-10.605468 10.605469 24.390625 24.394531c5.859375 5.855469 5.859375 15.355469 0 21.210938zm34.394531-165.605469h-160c-8.285156 0-15-6.714844-15-15s6.714844-15 15-15h160c8.285156 0 15 6.714844 15 15s-6.714844 15-15 15zm0-60h-160c-8.285156 0-15-6.714844-15-15s6.714844-15 15-15h160c8.285156 0 15 6.714844 15 15s-6.714844 15-15 15zm187 100.960938v114.039062c0 5.820312-3.367188 11.113281-8.636719 13.585938-2.03125.949218-4.203125 1.414062-6.359375 1.414062-3.445312 0-6.859375-1.1875-9.605468-3.476562l-20.398438-17-20.398438 17c-4.46875 3.726562-10.695312 4.53125-15.964843 2.0625-5.269531-2.472657-8.636719-7.765626-8.636719-13.585938v-114.039062c-18.203125-13.699219-30-35.476563-30-59.960938 0-41.355469 33.644531-75 75-75s75 33.644531 75 75c0 24.484375-11.796875 46.261719-30 59.960938zm0 0"/><path d="m362 224.492188v68.484374l5.398438-4.5c5.5625-4.632812 13.640624-4.632812 19.203124 0l5.398438 4.5v-68.484374c-4.847656.988281-9.863281 1.507812-15 1.507812s-10.152344-.519531-15-1.507812zm0 0"/><path d="m155 268.785156 10.605469-10.605468c5.847656-5.847657 5.847656-15.363282 0-21.210938-2.921875-2.925781-6.761719-4.390625-10.605469-4.390625-3.839844 0-7.683594 1.464844-10.605469 4.390625-5.847656 5.847656-5.847656 15.363281 0 21.210938zm0 0"/></svg>