<svg height="512" viewBox="0 0 192 192" width="512" xmlns="http://www.w3.org/2000/svg"><path d="m0 0h192v16h-192z"/><path d="m8 136a8 8 0 0 0 8 8h72v16h-16v16h48v-16h-16v-16h72a8 8 0 0 0 8-8v-112h-176zm56-24a31.875 31.875 0 0 1 -12.9-2.718l15.165-25.282h29.477a32 32 0 0 1 -31.742 28zm64 16a8 8 0 1 1 8-8 8 8 0 0 1 -8 8zm24 0a8 8 0 1 1 8-8 8 8 0 0 1 -8 8zm8-24h-32v-16h32zm0-24h-40v-16h40zm-48-40h48v16h-48zm-8 72a8 8 0 1 1 -8 8 8 8 0 0 1 8-8zm-40-64a32 32 0 0 1 31.742 28h-30.085l-21.273-21.273a31.848 31.848 0 0 1 19.616-6.727zm-25.273 12.384 20.236 20.236-14.724 24.54a31.974 31.974 0 0 1 -5.512-44.776z"/></svg>