<svg id="Layer_1" enable-background="new 0 0 510.275 510.275" height="512" viewBox="0 0 510.275 510.275" width="512" xmlns="http://www.w3.org/2000/svg"><path d="m255.138 229.889c11.673 0 21.17-9.497 21.17-21.171s-9.497-21.171-21.17-21.171c-11.674 0-21.171 9.497-21.171 21.171s9.497 21.171 21.171 21.171z"/><path d="m449.155 67.951-189-67.087c-3.246-1.152-6.789-1.152-10.035 0l-189 67.087c-5.984 2.124-9.982 7.786-9.982 14.136v197.998c0 116.207 86.871 215.113 202.069 230.065.641.083 1.286.125 1.931.125s1.29-.042 1.931-.125c115.198-14.952 202.069-113.859 202.069-230.065v-197.998c0-6.35-3.998-12.012-9.983-14.136zm-101.017 269.776c0 8.284-6.716 15-15 15s-15-6.716-15-15v-5.048c0-33.489-28.262-60.733-63-60.733s-63 27.245-63 60.733v5.048c0 8.284-6.716 15-15 15s-15-6.716-15-15v-5.048c0-38.719 24.989-71.844 60.057-84.847-11.136-9.394-18.227-23.438-18.227-39.114 0-28.216 22.955-51.171 51.171-51.171 28.215 0 51.17 22.955 51.17 51.171 0 15.676-7.092 29.72-18.227 39.114 35.067 13.003 60.057 46.129 60.057 84.847v5.048z"/></svg>