<svg id="Layer_1" data-name="Layer 1" xmlns="http://www.w3.org/2000/svg" width="1982.13" height="1516.62" viewBox="0 0 1982.13 1516.62"><title>image2</title><path d="M674.29,1079.68l284.12-162c10.39-6,9.08-16.48-2.91-23.41L792,799.89c-12-6.92-30.14-7.68-40.54-1.68l-284.11,162c-10.39,6-9.09,16.48,2.91,23.4L633.75,1078C645.75,1084.93,663.9,1085.68,674.29,1079.68Z" transform="translate(-49.83 -52.61)" style="fill:#a3e5df"/><path d="M442,905.68h0V242.4l263.68-69,48.57-28c11.15-6.43,30.62-5.63,43.49,1.8l45.32,26.17,140.64-.08L942.09,813.54c.32,4.35-2.11,8.56-7.46,11.65L671.48,1023.74c-11.14,6.44-30.61,5.63-43.49-1.8L452.63,920.69C445.2,916.4,441.62,910.85,442,905.68Z" transform="translate(-49.83 -52.61)" style="fill:#989b9a"/><path d="M774.47,141a50.19,50.19,0,0,1,23.31,6.11l45.32,26.17,140.64-.08V838.3c.32,4.35-2.11,8.56-7.47,11.65L671.48,1023.74c-5.35,3.09-12.64,4.5-20.18,4.31l-3.14-669.22Z" transform="translate(-49.83 -52.61)" style="fill:#c2cccb"/><path d="M668.68,1025.11c-9.61,4.12-23.52,3.89-34.76-.39V350.92h34.76Z" transform="translate(-49.83 -52.61)" style="fill:#858988"/><path d="M671.48,358.91l304.79-173.8c11.15-6.43,9.75-17.67-3.12-25.11L797.78,58.76c-12.87-7.44-32.34-8.24-43.49-1.81L449.5,230.75c-11.14,6.43-9.75,17.67,3.13,25.1L628,357.1C640.87,364.53,660.34,365.34,671.48,358.91Z" transform="translate(-49.83 -52.61)" style="fill:#c2cccb"/><path d="M452.63,243.52,628,344.77c12.88,7.43,32.35,8.24,43.49,1.8L976.27,172.78a16.76,16.76,0,0,0,5.56-4.93c3.83,6.16,2.1,12.84-5.56,17.26L671.48,358.91c-11.14,6.43-30.61,5.62-43.49-1.81L452.63,255.85c-10-5.77-13-13.84-8.69-20.17A24.33,24.33,0,0,0,452.63,243.52Z" transform="translate(-49.83 -52.61)" style="fill:#fafdff"/><path d="M662.86,288.47,865.78,170.84c5.22-3,4.56-8.27-1.46-11.75l-82.06-47.38c-6-3.47-15.14-3.85-20.35-.84L559,228.5c-5.22,3-4.57,8.27,1.46,11.75l82.06,47.38C648.53,291.1,657.64,291.48,662.86,288.47Z" transform="translate(-49.83 -52.61)" style="fill:#304947"/><path d="M772.41,176.13l11.76-6.79c.72-.42.63-1.15-.2-1.63l-11.36-6.55a3.08,3.08,0,0,0-2.81-.12L758,167.83c-.72.41-.63,1.14.2,1.62L769.6,176A3.14,3.14,0,0,0,772.41,176.13Z" transform="translate(-49.83 -52.61)" style="fill:#a3e5df"/><path d="M733.13,198.71l11.76-6.79c.72-.41.63-1.14-.21-1.62l-11.35-6.56a3.13,3.13,0,0,0-2.82-.11l-11.75,6.79c-.73.41-.64,1.14.2,1.62l11.35,6.56A3.13,3.13,0,0,0,733.13,198.71Z" transform="translate(-49.83 -52.61)" style="fill:#a3e5df"/><path d="M693.84,221.3l11.76-6.79c.72-.41.63-1.14-.2-1.62l-11.35-6.56a3.13,3.13,0,0,0-2.82-.11L679.47,213c-.72.42-.63,1.15.2,1.63L691,221.19A3.11,3.11,0,0,0,693.84,221.3Z" transform="translate(-49.83 -52.61)" style="fill:#a3e5df"/><path d="M654.56,243.89l11.76-6.79c.72-.42.63-1.14-.2-1.62l-11.36-6.56a3.14,3.14,0,0,0-2.81-.12l-11.76,6.79c-.72.42-.63,1.15.2,1.63l11.36,6.55A3.11,3.11,0,0,0,654.56,243.89Z" transform="translate(-49.83 -52.61)" style="fill:#a3e5df"/><path d="M865.78,170.84l-.24.14c-.39-.28-.76-.57-1.22-.84l-82.06-47.38c-6-3.48-15.14-3.85-20.35-.84L559.23,239.41c-4.81-3.44-5.06-8.13-.24-10.91L761.91,110.87c5.21-3,14.32-2.63,20.35.84l82.06,47.38C870.34,162.57,871,167.83,865.78,170.84Z" transform="translate(-49.83 -52.61)" style="fill:#337267"/><path d="M593.75,490.32,478.38,424.26c-6.49-3.75-11.76-13.8-11.76-22.46V360.54c0-8.66,5.27-12.64,11.76-8.89l115.37,66.06c6.5,3.75,11.76,13.81,11.76,22.46v41.26C605.51,490.09,600.25,494.07,593.75,490.32Z" transform="translate(-49.83 -52.61)" style="fill:#304947"/><path d="M472.67,350.41c-1.82,1.71-2.95,4.63-2.95,8.58v41.26c0,8.66,5.26,18.71,11.75,22.46l115.38,66.06a8.54,8.54,0,0,0,5.71,1.25c-2.16,2-5.28,2.33-8.81.3L478.38,424.26c-6.49-3.75-11.76-13.8-11.76-22.46V360.54C466.62,354.66,469.08,351,472.67,350.41Z" transform="translate(-49.83 -52.61)" style="fill:#fff"/><path d="M559.05,445.5l-10.58-6.11a6.13,6.13,0,0,1-2.56-4.9v-11.3c0-1.89,1.14-2.76,2.56-1.94l10.58,6.11a6.13,6.13,0,0,1,2.56,4.9v11.3C561.61,445.45,560.47,446.31,559.05,445.5Z" transform="translate(-49.83 -52.61)" style="fill:#379989"/><path d="M523.66,425.07,513.08,419a6.13,6.13,0,0,1-2.56-4.9v-11.3c0-1.89,1.14-2.76,2.56-1.94l10.58,6.11a6.13,6.13,0,0,1,2.57,4.89v11.31C526.23,425,525.08,425.88,523.66,425.07Z" transform="translate(-49.83 -52.61)" style="fill:#fff"/><path d="M593.75,788.46,478.38,722.41c-6.49-3.75-11.76-13.81-11.76-22.46V658.69c0-8.66,5.27-12.64,11.76-8.89l115.37,66.06c6.5,3.75,11.76,13.8,11.76,22.46v41.26C605.51,788.23,600.25,792.21,593.75,788.46Z" transform="translate(-49.83 -52.61)" style="fill:#304947"/><path d="M472.67,648.55c-1.82,1.72-2.95,4.63-2.95,8.59V698.4c0,8.65,5.26,18.71,11.75,22.46l115.38,66.06a8.47,8.47,0,0,0,5.71,1.24c-2.16,2-5.28,2.34-8.81.3L478.38,722.41c-6.49-3.75-11.76-13.81-11.76-22.46V658.69C466.62,652.81,469.08,649.17,472.67,648.55Z" transform="translate(-49.83 -52.61)" style="fill:#fff"/><path d="M559.05,743.64l-10.58-6.11a6.09,6.09,0,0,1-2.56-4.89V721.33c0-1.88,1.14-2.75,2.56-1.93l10.58,6.11a6.11,6.11,0,0,1,2.56,4.89v11.31C561.61,743.59,560.47,744.46,559.05,743.64Z" transform="translate(-49.83 -52.61)" style="fill:#379989"/><path d="M523.66,723.21l-10.58-6.11a6.11,6.11,0,0,1-2.56-4.89V700.9c0-1.89,1.14-2.75,2.56-1.94l10.58,6.11a6.14,6.14,0,0,1,2.57,4.9v11.31C526.23,723.16,525.08,724,523.66,723.21Z" transform="translate(-49.83 -52.61)" style="fill:#fff"/><path d="M593.75,937.54,478.38,871.48c-6.49-3.75-11.76-13.8-11.76-22.46V807.76c0-8.66,5.27-12.64,11.76-8.89l115.37,66.06c6.5,3.75,11.76,13.8,11.76,22.46v41.26C605.51,937.31,600.25,941.29,593.75,937.54Z" transform="translate(-49.83 -52.61)" style="fill:#304947"/><path d="M472.67,797.63c-1.82,1.71-2.95,4.62-2.95,8.58v41.26c0,8.66,5.26,18.71,11.75,22.46L596.85,936a8.54,8.54,0,0,0,5.71,1.25c-2.16,2-5.28,2.33-8.81.3L478.38,871.48c-6.49-3.75-11.76-13.81-11.76-22.46V807.76C466.62,801.88,469.08,798.24,472.67,797.63Z" transform="translate(-49.83 -52.61)" style="fill:#fff"/><path d="M559.05,892.72l-10.58-6.11a6.13,6.13,0,0,1-2.56-4.9v-11.3c0-1.89,1.14-2.76,2.56-1.94l10.58,6.11a6.13,6.13,0,0,1,2.56,4.9v11.3C561.61,892.67,560.47,893.53,559.05,892.72Z" transform="translate(-49.83 -52.61)" style="fill:#379989"/><path d="M523.66,872.29l-10.58-6.11a6.13,6.13,0,0,1-2.56-4.9V850c0-1.89,1.14-2.76,2.56-1.94l10.58,6.11a6.13,6.13,0,0,1,2.57,4.89v11.31C526.23,872.24,525.08,873.1,523.66,872.29Z" transform="translate(-49.83 -52.61)" style="fill:#fff"/><path d="M593.75,639.39,478.38,573.33c-6.49-3.74-11.76-13.8-11.76-22.46V509.61c0-8.65,5.27-12.63,11.76-8.88l115.37,66c6.5,3.75,11.76,13.81,11.76,22.47V630.5C605.51,639.16,600.25,643.14,593.75,639.39Z" transform="translate(-49.83 -52.61)" style="fill:#304947"/><path d="M472.67,499.48c-1.82,1.71-2.95,4.63-2.95,8.59v41.25c0,8.66,5.26,18.72,11.75,22.47l115.38,66.05a8.43,8.43,0,0,0,5.71,1.25c-2.16,2-5.28,2.34-8.81.3L478.38,573.33c-6.49-3.74-11.76-13.8-11.76-22.46V509.61C466.62,503.73,469.08,500.09,472.67,499.48Z" transform="translate(-49.83 -52.61)" style="fill:#fff"/><path d="M559.05,594.57l-10.58-6.11a6.12,6.12,0,0,1-2.56-4.89V572.26c0-1.89,1.14-2.75,2.56-1.94l10.58,6.11a6.13,6.13,0,0,1,2.56,4.9v11.3C561.61,594.52,560.47,595.39,559.05,594.57Z" transform="translate(-49.83 -52.61)" style="fill:#379989"/><path d="M523.66,574.14,513.08,568a6.13,6.13,0,0,1-2.56-4.9v-11.3c0-1.89,1.14-2.76,2.56-1.94L523.66,556a6.14,6.14,0,0,1,2.57,4.9v11.3C526.23,574.09,525.08,575,523.66,574.14Z" transform="translate(-49.83 -52.61)" style="fill:#fff"/><path d="M693.68,448.08,959.86,294.4c6-3.44,10.79-12.66,10.79-20.61V223c0-7.95-4.83-11.6-10.79-8.16L693.68,368.56c-5.95,3.44-10.78,12.67-10.78,20.61v50.76C682.9,447.87,687.73,451.52,693.68,448.08Z" transform="translate(-49.83 -52.61)" style="fill:#304947"/><path d="M701.32,430.29l250.9-144.86c3-1.75,5.48-6.43,5.48-10.46V236.81c0-4-2.45-5.88-5.48-4.13L701.32,377.53c-3,1.75-5.47,6.43-5.47,10.46v38.16C695.85,430.18,698.3,432,701.32,430.29Z" transform="translate(-49.83 -52.61)" style="fill:#c2cccb"/><path d="M899.94,296.33l37.44-21.62c2.93-1.7,5.31-6.24,5.31-10.16h0c0-3.91-2.38-5.71-5.31-4l-37.44,21.62c-2.94,1.69-5.32,6.24-5.32,10.15h0C894.62,296.22,897,298,899.94,296.33Z" transform="translate(-49.83 -52.61)" style="fill:#a3e5df"/><path d="M868,307.66c0,3.92,2.75,5.5,6.13,3.55a13.58,13.58,0,0,0,6.14-10.63c0-3.92-2.75-5.5-6.14-3.55A13.59,13.59,0,0,0,868,307.66Z" transform="translate(-49.83 -52.61)" style="fill:#343d3c"/><path d="M846.38,320.16c0,3.92,2.75,5.5,6.13,3.55a13.58,13.58,0,0,0,6.14-10.63c0-3.92-2.75-5.5-6.14-3.55A13.59,13.59,0,0,0,846.38,320.16Z" transform="translate(-49.83 -52.61)" style="fill:#343d3c"/><path d="M824.73,332.66c0,3.92,2.75,5.5,6.13,3.55A13.58,13.58,0,0,0,837,325.58c0-3.92-2.75-5.5-6.14-3.55A13.59,13.59,0,0,0,824.73,332.66Z" transform="translate(-49.83 -52.61)" style="fill:#a3e5df"/><path d="M803.08,345.16c0,3.92,2.75,5.5,6.14,3.55a13.59,13.59,0,0,0,6.13-10.63c0-3.92-2.75-5.5-6.13-3.55A13.58,13.58,0,0,0,803.08,345.16Z" transform="translate(-49.83 -52.61)" style="fill:#343d3c"/><path d="M711.88,409l12.61-7.29a8.16,8.16,0,0,0,3.41-6.51V381.89c0-2.51-1.53-3.66-3.41-2.57l-12.61,7.28a8.14,8.14,0,0,0-3.41,6.51v13.35C708.47,409,710,410.12,711.88,409Z" transform="translate(-49.83 -52.61)" style="fill:#343d3c"/><path d="M693.68,537.59,959.86,383.91c6-3.44,10.79-12.67,10.79-20.61V312.54c0-7.94-4.83-11.6-10.79-8.16L693.68,458.06c-5.95,3.44-10.78,12.67-10.78,20.62v50.75C682.9,537.37,687.73,541,693.68,537.59Z" transform="translate(-49.83 -52.61)" style="fill:#304947"/><path d="M701.32,519.79l250.9-144.86c3-1.74,5.48-6.42,5.48-10.45V326.32c0-4-2.45-5.88-5.48-4.14L701.32,467c-3,1.74-5.47,6.42-5.47,10.45v38.16C695.85,519.68,698.3,521.54,701.32,519.79Z" transform="translate(-49.83 -52.61)" style="fill:#c2cccb"/><path d="M899.94,385.83l37.44-21.62c2.93-1.69,5.31-6.24,5.31-10.15h0c0-3.92-2.38-5.71-5.31-4l-37.44,21.62c-2.94,1.69-5.32,6.24-5.32,10.15h0C894.62,385.73,897,387.53,899.94,385.83Z" transform="translate(-49.83 -52.61)" style="fill:#a3e5df"/><path d="M868,397.17c0,3.91,2.75,5.5,6.13,3.54a13.58,13.58,0,0,0,6.14-10.63c0-3.91-2.75-5.5-6.14-3.54A13.56,13.56,0,0,0,868,397.17Z" transform="translate(-49.83 -52.61)" style="fill:#fff"/><path d="M846.38,409.67c0,3.91,2.75,5.5,6.13,3.54a13.58,13.58,0,0,0,6.14-10.63c0-3.91-2.75-5.5-6.14-3.54A13.56,13.56,0,0,0,846.38,409.67Z" transform="translate(-49.83 -52.61)" style="fill:#343d3c"/><path d="M824.73,422.17c0,3.91,2.75,5.5,6.13,3.54A13.58,13.58,0,0,0,837,415.08c0-3.91-2.75-5.5-6.14-3.54A13.56,13.56,0,0,0,824.73,422.17Z" transform="translate(-49.83 -52.61)" style="fill:#a3e5df"/><path d="M803.08,434.67c0,3.91,2.75,5.5,6.14,3.54a13.59,13.59,0,0,0,6.13-10.63c0-3.91-2.75-5.5-6.13-3.54A13.55,13.55,0,0,0,803.08,434.67Z" transform="translate(-49.83 -52.61)" style="fill:#343d3c"/><path d="M711.88,498.54l12.61-7.28a8.19,8.19,0,0,0,3.41-6.52V471.4c0-2.51-1.53-3.67-3.41-2.58l-12.61,7.28a8.16,8.16,0,0,0-3.41,6.52V496C708.47,498.47,710,499.63,711.88,498.54Z" transform="translate(-49.83 -52.61)" style="fill:#343d3c"/><path d="M693.68,627.09,959.86,473.41c6-3.44,10.79-12.67,10.79-20.61V402c0-7.94-4.83-11.59-10.79-8.15L693.68,547.57c-5.95,3.44-10.78,12.67-10.78,20.61v50.76C682.9,626.88,687.73,630.53,693.68,627.09Z" transform="translate(-49.83 -52.61)" style="fill:#304947"/><path d="M701.32,609.29l250.9-144.85c3-1.75,5.48-6.43,5.48-10.46V415.82c0-4-2.45-5.88-5.48-4.14L701.32,556.54c-3,1.75-5.47,6.43-5.47,10.46v38.16C695.85,609.19,698.3,611,701.32,609.29Z" transform="translate(-49.83 -52.61)" style="fill:#c2cccb"/><path d="M899.94,475.34l37.44-21.62c2.93-1.7,5.31-6.24,5.31-10.16h0c0-3.91-2.38-5.71-5.31-4l-37.44,21.62c-2.94,1.7-5.32,6.24-5.32,10.16h0C894.62,475.23,897,477,899.94,475.34Z" transform="translate(-49.83 -52.61)" style="fill:#a3e5df"/><path d="M868,486.67c0,3.91,2.75,5.5,6.13,3.54a13.55,13.55,0,0,0,6.14-10.63c0-3.91-2.75-5.5-6.14-3.54A13.59,13.59,0,0,0,868,486.67Z" transform="translate(-49.83 -52.61)" style="fill:#fff"/><path d="M846.38,499.17c0,3.91,2.75,5.5,6.13,3.54a13.55,13.55,0,0,0,6.14-10.63c0-3.91-2.75-5.5-6.14-3.54A13.59,13.59,0,0,0,846.38,499.17Z" transform="translate(-49.83 -52.61)" style="fill:#343d3c"/><path d="M824.73,511.67c0,3.91,2.75,5.5,6.13,3.54A13.55,13.55,0,0,0,837,504.58c0-3.91-2.75-5.5-6.14-3.54A13.59,13.59,0,0,0,824.73,511.67Z" transform="translate(-49.83 -52.61)" style="fill:#a3e5df"/><path d="M803.08,524.17c0,3.91,2.75,5.5,6.14,3.54a13.56,13.56,0,0,0,6.13-10.63c0-3.91-2.75-5.5-6.13-3.54A13.58,13.58,0,0,0,803.08,524.17Z" transform="translate(-49.83 -52.61)" style="fill:#343d3c"/><path d="M711.88,588l12.61-7.28a8.16,8.16,0,0,0,3.41-6.51V560.9c0-2.51-1.53-3.66-3.41-2.58l-12.61,7.28a8.16,8.16,0,0,0-3.41,6.52v13.35C708.47,588,710,589.13,711.88,588Z" transform="translate(-49.83 -52.61)" style="fill:#343d3c"/><path d="M693.68,716.59,959.86,562.91c6-3.44,10.79-12.66,10.79-20.61V491.55c0-7.95-4.83-11.6-10.79-8.16L693.68,637.07c-5.95,3.44-10.78,12.67-10.78,20.61v50.76C682.9,716.38,687.73,720,693.68,716.59Z" transform="translate(-49.83 -52.61)" style="fill:#304947"/><path d="M701.32,698.8l250.9-144.86c3-1.74,5.48-6.43,5.48-10.46V505.33c0-4-2.45-5.89-5.48-4.14L701.32,646c-3,1.75-5.47,6.43-5.47,10.46v38.16C695.85,698.69,698.3,700.54,701.32,698.8Z" transform="translate(-49.83 -52.61)" style="fill:#c2cccb"/><path d="M899.94,564.84l37.44-21.62c2.93-1.69,5.31-6.24,5.31-10.15h0c0-3.92-2.38-5.72-5.31-4l-37.44,21.62c-2.94,1.69-5.32,6.24-5.32,10.15h0C894.62,564.73,897,566.53,899.94,564.84Z" transform="translate(-49.83 -52.61)" style="fill:#a3e5df"/><path d="M868,576.17c0,3.92,2.75,5.5,6.13,3.55a13.58,13.58,0,0,0,6.14-10.63c0-3.92-2.75-5.5-6.14-3.54A13.56,13.56,0,0,0,868,576.17Z" transform="translate(-49.83 -52.61)" style="fill:#343d3c"/><path d="M846.38,588.67c0,3.92,2.75,5.5,6.13,3.55a13.58,13.58,0,0,0,6.14-10.63c0-3.92-2.75-5.5-6.14-3.55A13.59,13.59,0,0,0,846.38,588.67Z" transform="translate(-49.83 -52.61)" style="fill:#343d3c"/><path d="M824.73,601.17c0,3.92,2.75,5.5,6.13,3.55A13.58,13.58,0,0,0,837,594.09c0-3.92-2.75-5.5-6.14-3.55A13.59,13.59,0,0,0,824.73,601.17Z" transform="translate(-49.83 -52.61)" style="fill:#a3e5df"/><path d="M803.08,613.67c0,3.92,2.75,5.5,6.14,3.55a13.59,13.59,0,0,0,6.13-10.63c0-3.92-2.75-5.5-6.13-3.55A13.58,13.58,0,0,0,803.08,613.67Z" transform="translate(-49.83 -52.61)" style="fill:#343d3c"/><path d="M711.88,677.55l12.61-7.28a8.19,8.19,0,0,0,3.41-6.52V650.41c0-2.52-1.53-3.67-3.41-2.58l-12.61,7.28a8.15,8.15,0,0,0-3.41,6.52V675C708.47,677.48,710,678.64,711.88,677.55Z" transform="translate(-49.83 -52.61)" style="fill:#a3e5df"/><path d="M693.68,806.1,959.86,652.42c6-3.44,10.79-12.67,10.79-20.61V581.05c0-7.94-4.83-11.59-10.79-8.15L693.68,726.58c-5.95,3.43-10.78,12.66-10.78,20.61v50.75C682.9,805.89,687.73,809.54,693.68,806.1Z" transform="translate(-49.83 -52.61)" style="fill:#304947"/><path d="M701.32,788.3l250.9-144.86c3-1.74,5.48-6.42,5.48-10.45V594.83c0-4-2.45-5.88-5.48-4.14L701.32,735.55c-3,1.74-5.47,6.43-5.47,10.46v38.15C695.85,788.19,698.3,790.05,701.32,788.3Z" transform="translate(-49.83 -52.61)" style="fill:#c2cccb"/><path d="M899.94,654.34l37.44-21.62c2.93-1.69,5.31-6.24,5.31-10.15h0c0-3.91-2.38-5.71-5.31-4l-37.44,21.62c-2.94,1.69-5.32,6.24-5.32,10.15h0C894.62,654.24,897,656,899.94,654.34Z" transform="translate(-49.83 -52.61)" style="fill:#a3e5df"/><path d="M868,665.68c0,3.91,2.75,5.5,6.13,3.54a13.56,13.56,0,0,0,6.14-10.63c0-3.91-2.75-5.5-6.14-3.54A13.59,13.59,0,0,0,868,665.68Z" transform="translate(-49.83 -52.61)" style="fill:#343d3c"/><path d="M846.38,678.18c0,3.91,2.75,5.5,6.13,3.54a13.56,13.56,0,0,0,6.14-10.63c0-3.91-2.75-5.5-6.14-3.54A13.58,13.58,0,0,0,846.38,678.18Z" transform="translate(-49.83 -52.61)" style="fill:#fff"/><path d="M824.73,690.68c0,3.91,2.75,5.5,6.13,3.54A13.56,13.56,0,0,0,837,683.59c0-3.91-2.75-5.5-6.14-3.54A13.58,13.58,0,0,0,824.73,690.68Z" transform="translate(-49.83 -52.61)" style="fill:#a3e5df"/><path d="M803.08,703.18c0,3.91,2.75,5.5,6.14,3.54a13.59,13.59,0,0,0,6.13-10.63c0-3.91-2.75-5.5-6.13-3.54A13.55,13.55,0,0,0,803.08,703.18Z" transform="translate(-49.83 -52.61)" style="fill:#fff"/><path d="M711.88,767.05l12.61-7.28a8.19,8.19,0,0,0,3.41-6.52V739.91c0-2.51-1.53-3.67-3.41-2.58l-12.61,7.28a8.16,8.16,0,0,0-3.41,6.52v13.34C708.47,767,710,768.14,711.88,767.05Z" transform="translate(-49.83 -52.61)" style="fill:#a3e5df"/><path d="M693.68,895.6,959.86,741.92c6-3.44,10.79-12.67,10.79-20.61V670.55c0-7.94-4.83-11.59-10.79-8.15L693.68,816.08c-5.95,3.44-10.78,12.67-10.78,20.61v50.76C682.9,895.39,687.73,899,693.68,895.6Z" transform="translate(-49.83 -52.61)" style="fill:#304947"/><path d="M701.32,877.8,952.22,733c3-1.75,5.48-6.43,5.48-10.46V684.33c0-4-2.45-5.88-5.48-4.13L701.32,825.05c-3,1.75-5.47,6.43-5.47,10.46v38.16C695.85,877.7,698.3,879.55,701.32,877.8Z" transform="translate(-49.83 -52.61)" style="fill:#c2cccb"/><path d="M899.94,743.85l37.44-21.62c2.93-1.7,5.31-6.24,5.31-10.16h0c0-3.91-2.38-5.71-5.31-4l-37.44,21.61c-2.94,1.7-5.32,6.24-5.32,10.16h0C894.62,743.74,897,745.54,899.94,743.85Z" transform="translate(-49.83 -52.61)" style="fill:#a3e5df"/><path d="M868,755.18c0,3.92,2.75,5.5,6.13,3.55a13.58,13.58,0,0,0,6.14-10.63c0-3.92-2.75-5.5-6.14-3.55A13.59,13.59,0,0,0,868,755.18Z" transform="translate(-49.83 -52.61)" style="fill:#343d3c"/><path d="M846.38,767.68c0,3.92,2.75,5.5,6.13,3.54a13.54,13.54,0,0,0,6.14-10.62c0-3.92-2.75-5.5-6.14-3.55A13.59,13.59,0,0,0,846.38,767.68Z" transform="translate(-49.83 -52.61)" style="fill:#343d3c"/><path d="M824.73,780.18c0,3.91,2.75,5.5,6.13,3.54A13.55,13.55,0,0,0,837,773.09c0-3.91-2.75-5.49-6.14-3.54A13.59,13.59,0,0,0,824.73,780.18Z" transform="translate(-49.83 -52.61)" style="fill:#a3e5df"/><path d="M803.08,792.68c0,3.91,2.75,5.5,6.14,3.54a13.56,13.56,0,0,0,6.13-10.63c0-3.91-2.75-5.5-6.13-3.54A13.58,13.58,0,0,0,803.08,792.68Z" transform="translate(-49.83 -52.61)" style="fill:#343d3c"/><path d="M711.88,856.56l12.61-7.29a8.16,8.16,0,0,0,3.41-6.51V829.41c0-2.51-1.53-3.66-3.41-2.58l-12.61,7.29c-1.89,1.08-3.41,4-3.41,6.51V854C708.47,856.49,710,857.64,711.88,856.56Z" transform="translate(-49.83 -52.61)" style="fill:#343d3c"/><path d="M693.68,985.11,959.86,831.43c6-3.44,10.79-12.67,10.79-20.62V760.06c0-7.95-4.83-11.6-10.79-8.16L693.68,905.58c-5.95,3.44-10.78,12.67-10.78,20.61V977C682.9,984.89,687.73,988.54,693.68,985.11Z" transform="translate(-49.83 -52.61)" style="fill:#304947"/><path d="M701.32,967.31l250.9-144.86c3-1.74,5.48-6.42,5.48-10.46V773.84c0-4-2.45-5.89-5.48-4.14L701.32,914.56c-3,1.74-5.47,6.42-5.47,10.45v38.16C695.85,967.2,698.3,969.05,701.32,967.31Z" transform="translate(-49.83 -52.61)" style="fill:#c2cccb"/><path d="M899.94,833.35l37.44-21.62c2.93-1.69,5.31-6.24,5.31-10.15h0c0-3.92-2.38-5.72-5.31-4l-37.44,21.62c-2.94,1.69-5.32,6.24-5.32,10.15h0C894.62,833.25,897,835,899.94,833.35Z" transform="translate(-49.83 -52.61)" style="fill:#a3e5df"/><path d="M861.19,849.53c0,7.39,5.18,10.39,11.59,6.69s11.59-12.68,11.59-20.07-5.19-10.39-11.59-6.7S861.19,842.14,861.19,849.53Z" transform="translate(-49.83 -52.61)" style="fill:#fff"/><path d="M816.34,875.77c0,3.91,2.75,5.5,6.14,3.54a13.55,13.55,0,0,0,6.14-10.63c0-3.91-2.75-5.5-6.14-3.54A13.58,13.58,0,0,0,816.34,875.77Z" transform="translate(-49.83 -52.61)" style="fill:#343d3c"/><path d="M794.69,888.27c0,3.91,2.75,5.5,6.14,3.54A13.55,13.55,0,0,0,807,881.18c0-3.91-2.75-5.5-6.14-3.54A13.58,13.58,0,0,0,794.69,888.27Z" transform="translate(-49.83 -52.61)" style="fill:#a3e5df"/><path d="M773,900.77c0,3.91,2.75,5.5,6.14,3.54a13.55,13.55,0,0,0,6.14-10.63c0-3.91-2.75-5.5-6.14-3.54A13.58,13.58,0,0,0,773,900.77Z" transform="translate(-49.83 -52.61)" style="fill:#343d3c"/><path d="M711.88,946.06l12.61-7.28a8.19,8.19,0,0,0,3.41-6.52V918.92c0-2.52-1.53-3.67-3.41-2.58l-12.61,7.28a8.15,8.15,0,0,0-3.41,6.52v13.34C708.47,946,710,947.15,711.88,946.06Z" transform="translate(-49.83 -52.61)" style="fill:#a3e5df"/><polygon points="1725.55 1071.66 1202.7 769.64 1792.1 797.41 1828.71 832.43 1836.67 884.96 1830.83 920.65 1813.32 964.01 1795.81 997.97 1776.18 1023.44 1725.55 1071.66" style="fill:#304947"/><path d="M1335.92,546.89c-.89-.55-1.8-1.07-2.72-1.57l-.16-.1h0c-20.89-11.18-49.26-9.14-80.49,8.9L538.32,966.46a50.44,50.44,0,0,1,8.22,8l27.07-15.63L718.14,1272.9,793,1375l48.81,17,49-19.13,237.57-135,470.9-269.26,172.71-103.75,45.1-14.32,40.57-2.41Z" transform="translate(-49.83 -52.61)" style="fill:#a3e5df"/><path d="M771.51,1314.39c0-73.92,52.09-164.14,116.11-201.1V1126c-57.94,33.46-105.08,115.1-105.08,182s47.14,94.12,105.08,60.67l887.76-512.55c32-18.48,61-20.21,82-8.08l-521.5-301.17c-.89-.55-1.8-1.07-2.72-1.57l-.16-.1h0c-20.89-11.18-49.26-9.14-80.49,8.89L538.32,966.46a50.44,50.44,0,0,1,8.22,8l27.07-15.63L718.14,1272.9l59.77,81.61C773.78,1343.15,771.51,1329.73,771.51,1314.39Z" transform="translate(-49.83 -52.61)" style="fill:#a3e5df"/><path d="M1857.55,848.14h0l-.09-.06Z" transform="translate(-49.83 -52.61)" style="fill:#a3e5df"/><path d="M771.51,1307.33c0,1.29.11,2.49.14,3.76.76-36.9,14.17-77.53,35.34-113.44-1-.63-2-1.26-3-1.91C783.94,1231.45,771.51,1271.31,771.51,1307.33Z" transform="translate(-49.83 -52.61)" style="fill:#fff"/><path d="M1775.38,849.08,887.62,1361.63c-56.57,32.66-102.83,7.46-105-56,0,.8-.1,1.62-.1,2.41,0,66.91,47.14,94.12,105.08,60.67l887.76-512.55c32-18.48,61-20.21,82-8.08l-25.23-14.58C1815.38,832.25,1796,837.16,1775.38,849.08Z" transform="translate(-49.83 -52.61)" style="fill:#fff"/><path d="M718.14,1265.84,573.61,951.76l-27.07,15.63c-1.09-1.3-2.23-2.52-3.4-3.71l-4.82,2.78a50.44,50.44,0,0,1,8.22,8l27.07-15.63L718.14,1272.9l59.77,81.61a97,97,0,0,1-3.29-11.56Z" transform="translate(-49.83 -52.61)" style="fill:#fff"/><path d="M1857.55,841.07h0l-.09-.05Z" transform="translate(-49.83 -52.61)" style="fill:#a3e5df"/><path d="M364.76,811.27h0c-64,37-116.1,127.17-116.1,201.1,0,35.69,12.16,61.12,31.93,73.76l0,0,.32.18c1.17.74,2.37,1.43,3.59,2.08l521,301-31.9-57.65,3.72-57.56,10.08-32.37,15.38-34.49s12.74-23.61,13.53-24.14,18.84-23.88,18.84-23.88l17.54-18.3,19.07-12.21,15.88-15.55Z" transform="translate(-49.83 -52.61)" style="fill:#337267"/><path d="M1775.38,1124.27v-12.73c57.94-33.45,105.08-115.1,105.08-182s-47.14-94.12-105.08-60.67L887.62,1381.42c-64,37-116.11,6.9-116.11-67s52.09-164.14,116.11-201.1V1126c-57.94,33.46-105.08,115.1-105.08,182s47.14,94.12,105.08,60.67l887.76-512.55c64-37,116.11-6.9,116.11,67S1839.4,1087.31,1775.38,1124.27Z" transform="translate(-49.83 -52.61)" style="fill:#395b56"/><path d="M1359.61,943.93,1111,803.58c-9.92-5.59-27.14-4.7-38.46,2l-142.07,84c-11.32,6.69-12.45,16.65-2.53,22.24l248.63,140.36c9.92,5.59,27.14,4.69,38.46-2l142.06-84C1368.4,959.48,1369.54,949.52,1359.61,943.93Z" transform="translate(-49.83 -52.61)" style="fill:#337267"/><path d="M1170.39,1021.75l-255.59-144c-5-2.85-7.46-6.71-7.59-10.77l-.13.1-.29-28.46s9,7.37,14.26,11.68l159.26-94.18c13-7.66,32.67-8.68,44-2.28l244.3,137.65,18.68-11.05.34,28.73-.11-.09c-.07,4.92-3.54,10.12-10.51,14.24l-162.61,96.16C1201.46,1027.13,1181.75,1028.15,1170.39,1021.75Z" transform="translate(-49.83 -52.61)" style="fill:#3aaea9"/><path d="M1379.6,868.87,1124,724.85c-11.36-6.4-31.07-5.37-44,2.29L917.38,823.3c-13,7.66-14.26,19.06-2.9,25.46l255.59,144c11.36,6.4,31.07,5.38,44-2.28l162.61-96.17C1389.66,886.67,1391,875.27,1379.6,868.87Z" transform="translate(-49.83 -52.61)" style="fill:#fff"/><path d="M1170.07,992.79l-255.59-144c-6.46-3.63-8.68-8.89-7.14-14.16a15.3,15.3,0,0,0,6.56,6.6l255.59,144c11.36,6.4,31.07,5.37,44-2.29l162.6-96.16c5.59-3.31,8.88-7.31,10.05-11.3,2.95,6.09-.25,13.41-9.47,18.86L1214.09,990.5C1201.13,998.16,1181.42,999.18,1170.07,992.79Z" transform="translate(-49.83 -52.61)" style="fill:#fff"/><path d="M1111.47,831.53c9.41-5.56,9.31-14.42-.21-19.79s-24.87-5.21-34.28.36-9.32,14.42.2,19.79S1102.06,837.1,1111.47,831.53Z" transform="translate(-49.83 -52.61)" style="fill:#3aaea9"/><ellipse cx="1146.46" cy="851.25" rx="24.24" ry="14" transform="translate(-58.66 -40.59) rotate(-0.6)" style="fill:#3aaea9"/><ellipse cx="1198.71" cy="880.69" rx="24.24" ry="14" transform="translate(-58.96 -40.04) rotate(-0.6)" style="fill:#3aaea9"/><polygon points="973.83 1069.99 765.48 948.49 752.41 955.96 960.76 1077.46 973.83 1069.99" style="fill:#def2f1"/><polygon points="968.03 1000.66 822.58 915.85 809.51 923.32 954.96 1008.13 968.03 1000.66" style="fill:#def2f1"/><polygon points="919.85 1005.54 794.03 932.17 780.96 939.64 906.78 1013.01 919.85 1005.54" style="fill:#def2f1"/><polygon points="1002.38 1053.67 939.47 1016.98 926.4 1024.45 989.31 1061.14 1002.38 1053.67" style="fill:#def2f1"/><polygon points="1460.15 858.04 1251.8 736.54 1238.73 744.02 1447.08 865.51 1460.15 858.04" style="fill:#def2f1"/><polygon points="1454.35 788.71 1308.9 703.9 1295.83 711.37 1441.28 796.18 1454.35 788.71" style="fill:#def2f1"/><polygon points="1406.17 793.59 1280.35 720.22 1267.28 727.7 1393.11 801.07 1406.17 793.59" style="fill:#def2f1"/><polygon points="1488.7 841.72 1425.79 805.03 1412.72 812.5 1475.63 849.19 1488.7 841.72" style="fill:#def2f1"/><path d="M1335.92,546.89c-.89-.55-1.8-1.07-2.72-1.57l-.16-.09h0c-20.89-11.19-49.26-9.15-80.49,8.88l-60,34.61,84.26,48.65c4.07,2.35,7.76,2.33,10.49.42h0l102.74-59.63Z" transform="translate(-49.83 -52.61)" style="fill:#2b4c45"/><path d="M1466.45,456.65l-27-15.62,99.71-57.56c4.71-2.72,4.71-7.15,0-9.87l-101.86-58.81c-4.71-2.72-12.37-2.72-17.08,0l-99.72,57.57-27-15.61,99.71-57.57c19.62-11.33,51.55-11.33,71.17,0L1566.16,358c19.62,11.33,19.62,29.76,0,41.09Z" transform="translate(-49.83 -52.61)" style="fill:#3aaea9"/><path d="M1510.08,463.52c0-14.46-8.79-31.25-19.63-37.51L1309.79,321.7c-4.86-2.8-9.29-3-12.72-1.08h0L1081.35,446,1290,603.14,1502.46,479.8a10.11,10.11,0,0,0,1.88-1.09h0C1507.89,476,1510.08,470.75,1510.08,463.52Z" transform="translate(-49.83 -52.61)" style="fill:#337267"/><path d="M1290,603.14,1502.46,479.8a10.11,10.11,0,0,0,1.88-1.09h0c3.55-2.69,5.74-8,5.74-15.19a48.07,48.07,0,0,0-5.29-20.89L1262.55,582.49Z" transform="translate(-49.83 -52.61)" style="fill:#343d3c"/><path d="M1276.36,602.58,1095.7,498.28c-10.84-6.26-19.63-23.06-19.63-37.51h0c0-14.46,8.79-21.11,19.63-14.85l180.66,104.31c10.85,6.26,19.64,23,19.64,37.51h0C1296,602.2,1287.21,608.84,1276.36,602.58Z" transform="translate(-49.83 -52.61)" style="fill:#304947"/><path d="M1278.54,549.24,1097.88,444.93c-5-2.87-9.53-3-13-.91,3.1-.95,6.82-.4,10.81,1.9l180.66,104.31c10.85,6.26,19.64,23,19.64,37.51h0c0,7.81-2.58,13.31-6.65,15.76,5.31-1.62,8.82-7.62,8.82-16.75h0C1298.17,572.29,1289.38,555.5,1278.54,549.24Z" transform="translate(-49.83 -52.61)" style="fill:#fff"/><path d="M1249.3,567.41l-21.71-12.53c-2.17-1.25-3.92-4.6-3.92-7.48h0c0-2.88,1.75-4.21,3.92-3L1249.3,557c2.17,1.25,3.92,4.6,3.92,7.48h0C1253.22,567.33,1251.47,568.65,1249.3,567.41Z" transform="translate(-49.83 -52.61)" style="fill:#fff"/><path d="M1273.8,419.11c6.55-3.88,6.49-10.05-.14-13.79s-17.32-3.62-23.87.25-6.49,10.05.14,13.78S1267.25,423,1273.8,419.11Z" transform="translate(-49.83 -52.61)" style="fill:#a3e5df"/><path d="M1310.18,439.6c6.55-3.87,6.49-10-.14-13.78s-17.32-3.62-23.88.25-6.48,10.05.15,13.78S1303.63,443.48,1310.18,439.6Z" transform="translate(-49.83 -52.61)" style="fill:#fff"/><path d="M1346.56,460.1c6.55-3.87,6.48-10-.15-13.78s-17.32-3.63-23.87.25-6.49,10,.15,13.78S1340,464,1346.56,460.1Z" transform="translate(-49.83 -52.61)" style="fill:#fff"/><path d="M1041.23,1540.27l566.59-327.35c13.74-7.93,12-21.78-3.85-30.94h0c-15.86-9.16-39.85-10.15-53.59-2.22L983.8,1507.11c-13.74,7.93-12,21.78,3.84,30.94h0C1003.5,1547.21,1027.5,1548.2,1041.23,1540.27Z" transform="translate(-49.83 -52.61)" style="fill:#efefef"/><path d="M1654.12,1101h0a2.18,2.18,0,0,0-2.33-1l-30.17,6.23,11.66,20.28,20.57-22.92A2.17,2.17,0,0,0,1654.12,1101Z" transform="translate(-49.83 -52.61)" style="fill:#a3e5df"/><path d="M1642.1,1115.78a15,15,0,0,0-6.78-11.81,5,5,0,0,0-4.52-.61,192.31,192.31,0,0,0-99.24,25.53l-2.18,1.25,36.75,64,11.12-7.21a192.3,192.3,0,0,0,58.29-59.26l4.8-7.67A4.9,4.9,0,0,0,1642.1,1115.78Z" transform="translate(-49.83 -52.61)" style="fill:#304947"/><path d="M1573.81,1177.24c0-16.63-11.6-36.88-26-45.23s-26.08-1.63-26.12,15,11.6,36.89,26,45.24S1573.78,1193.88,1573.81,1177.24Z" transform="translate(-49.83 -52.61)" style="fill:#a3e5df"/><polygon points="1293.04 1277.55 1516.3 1141.51 1479.55 1077.53 1249.61 1201.96 1293.04 1277.55" style="fill:#a3e5df"/><path d="M1351.94,1310.23c0-19.66-13.71-43.59-30.71-53.46s-30.82-1.92-30.86,17.73,13.71,43.59,30.71,53.46S1351.9,1329.88,1351.94,1310.23Z" transform="translate(-49.83 -52.61)" style="fill:#a3e5df"/><path d="M1339.21,1317.54c0-19.66-13.71-43.59-30.71-53.45s-30.82-1.93-30.86,17.73,13.71,43.59,30.71,53.45S1339.17,1337.2,1339.21,1317.54Z" transform="translate(-49.83 -52.61)" style="fill:#a3e5df"/><rect x="990.52" y="1340.91" width="340.54" height="87.18" transform="translate(-585.27 709.73) rotate(-29.88)" style="fill:#a3e5df"/><path d="M1044,1487.19c0-19.66-13.71-43.59-30.72-53.45s-30.82-1.93-30.86,17.73,13.71,43.59,30.71,53.45S1043.9,1506.85,1044,1487.19Z" transform="translate(-49.83 -52.61)" style="fill:#a3e5df"/><path d="M1032.93,1480.8c-.56-11.61-9.87-26.15-20.79-32.49s-19.31-2.06-18.75,9.55,9.87,26.15,20.78,32.49S1033.49,1492.41,1032.93,1480.8Z" transform="translate(-49.83 -52.61)" style="fill:#379989"/><path d="M1354.19,1308.93c0-19.65-13.71-43.58-30.71-53.45-6.85-4-13.16-5-18.29-3.6,5.61-5.75,14.72-6.34,25-.37,17,9.87,30.75,33.8,30.71,53.45,0,11.74-5,19.26-12.58,21.34C1352,1322.57,1354.17,1316.68,1354.19,1308.93Z" transform="translate(-49.83 -52.61)" style="fill:#fff"/><path d="M1354.19,1308.94c0-19.66-13.71-43.59-30.71-53.46-8.51-4.93-16.21-5.41-21.8-2.2l-16.73,9.61,7.8,13.56c1.27,17.89,13,38.37,27.85,48.47l7.79,13.56,16.73-9.61h0C1350.7,1325.66,1354.17,1318.76,1354.19,1308.94Z" transform="translate(-49.83 -52.61)" style="fill:#337267"/><path d="M1337.46,1318.55c0-19.66-13.71-43.59-30.71-53.45s-30.82-1.93-30.87,17.73,13.71,43.58,30.72,53.45S1337.42,1338.21,1337.46,1318.55Z" transform="translate(-49.83 -52.61)" style="fill:#a3e5df"/><path d="M1019,1489.39l-18.74-32.62-62.58,36a18.81,18.81,0,0,0-6.94,25.68h0a18.82,18.82,0,0,0,25.68,6.94Z" transform="translate(-49.83 -52.61)" style="fill:#494f5c"/><path d="M1022.93,1480.79c0-8.49-5.91-18.81-13.25-23.07s-13.29-.83-13.31,7.65,5.91,18.81,13.25,23.07S1022.92,1489.27,1022.93,1480.79Z" transform="translate(-49.83 -52.61)" style="fill:#494f5c"/><path d="M1093.22,1367l-9.27-5.39c-5.33-3.09-12.43-2.4-20,1.94L1031.81,1382c-6.07,3.49-11,12-11,19l0,16a13.22,13.22,0,0,1-3.3,8l1.12,7.42-7.92-4.65h0c-1.14-.59-1.86-1.94-1.86-3.91l0-16c0-14.6,10.36-32.4,23-39.67l32.16-18.48c10.74-6.17,20.83-7.15,28.42-2.75l9.27,5.38c5.33,3.09,12.43,2.4,20-1.94L1251.31,1276c1.67-1,3.18-1,4.26-.37v0l7.91,4.64-6.84,2.55a13.17,13.17,0,0,1-5.36,7l-129.64,74.48C1110.9,1370.43,1100.8,1371.4,1093.22,1367Z" transform="translate(-49.83 -52.61)" style="fill:#337267"/><path d="M1092,1366.32c-5.33-3.08-12.43-2.4-20,1.94l-32.16,18.48c-6.07,3.49-11,12-11,19l0,16a13.19,13.19,0,0,1-6,10.32c-3.3,1.9-6,.35-6-3.46l0-16c0-14.6,10.36-32.39,23-39.67l32.16-18.48c10.74-6.17,20.83-7.15,28.42-2.75l9.27,5.38c5.33,3.09,12.43,2.41,20-1.94l129.64-74.48c3.3-1.9,6-.35,6,3.46a13.2,13.2,0,0,1-6,10.32L1129.67,1369c-10.74,6.18-20.84,7.16-28.42,2.76Z" transform="translate(-49.83 -52.61)" style="fill:#337267"/><path d="M1028.37,1408.4l0,16c0,.1,0,.21,0,.32a10.82,10.82,0,0,0,.48-3l0-16c0-.45.08-.93.12-1.39A18.49,18.49,0,0,0,1028.37,1408.4Z" transform="translate(-49.83 -52.61)" style="fill:#fff"/><path d="M967.68,1566.45l59.27-34.22c7.15-4.13,6.26-11.34-2-16.11h0c-8.25-4.76-20.74-5.28-27.89-1.15l-59.27,34.22c-7.15,4.13-6.25,11.34,2,16.1h0C948,1570.06,960.53,1570.57,967.68,1566.45Z" transform="translate(-49.83 -52.61)" style="fill:#efefef"/><polygon points="290.64 1425.85 216.57 1383.1 290.63 1340.34 364.69 1383.1 290.64 1425.85" style="fill:#efefef"/><polygon points="364.7 1334.59 290.64 1377.35 290.64 1291.84 364.7 1249.08 364.7 1334.59" style="fill:#494f5c"/><polygon points="290.64 1291.84 216.57 1249.08 290.63 1206.32 364.69 1249.08 290.64 1291.84" style="fill:#c2cccb"/><polygon points="290.64 1377.35 216.57 1334.59 216.57 1249.08 290.64 1291.84 290.64 1377.35" style="fill:#3aaea9"/><polygon points="82.49 907.87 0 860.24 82.49 812.62 164.98 860.24 82.49 907.87" style="fill:#efefef"/><polygon points="164.99 806.22 82.49 853.84 82.49 758.59 164.99 710.96 164.99 806.22" style="fill:#343d3c"/><polygon points="82.49 758.59 0 710.96 82.49 663.34 164.98 710.97 82.49 758.59" style="fill:#a3e5df"/><polygon points="82.49 853.84 0 806.22 0 710.96 82.49 758.59 82.49 853.84" style="fill:#989b9a"/><path d="M1823.19,799.29,1658,703.9c-10.14-5.85-8.87-16.08,2.84-22.84L1820.34,589c11.71-6.76,29.42-7.49,39.56-1.64l165.21,95.39c10.14,5.85,8.87,16.08-2.84,22.84l-159.52,92.1C1851,804.41,1833.33,805.14,1823.19,799.29Z" transform="translate(-49.83 -52.61)" style="fill:#efefef"/><path d="M2031.9,636.59h0v-57l-127.82-.07L1859.9,554c-10.14-5.86-27.85-5.12-39.56,1.64l-41.22,23.8-127.93-.07V638c-.29,4,1.92,7.79,6.79,10.6L1823.19,744c10.14,5.86,27.85,5.12,39.56-1.64l159.52-92.1C2029,646.34,2032.28,641.29,2031.9,636.59Z" transform="translate(-49.83 -52.61)" style="fill:#379989"/><path d="M1841.55,550.09a45.69,45.69,0,0,0-21.21,5.56l-41.22,23.8-127.93-.07V638c-.29,4,1.92,7.79,6.79,10.6L1823.19,744c4.87,2.82,11.5,4.09,18.36,3.93Z" transform="translate(-49.83 -52.61)" style="fill:#304947"/><path d="M1665.67,579.38h-14.48V638c-.29,4,1.92,7.79,6.79,10.6l7.69,4.44Z" transform="translate(-49.83 -52.61)" style="fill:#337267"/><path d="M1825.74,745.23c8.74,3.75,21.39,3.54,31.62-.36V678.3h-31.62Z" transform="translate(-49.83 -52.61)" style="fill:#337267"/><path d="M1823.19,685.57,1658,590.19c-10.14-5.86-8.87-16.08,2.84-22.84l159.52-92.1c11.71-6.76,29.42-7.5,39.56-1.64L2025.11,569c10.14,5.85,8.87,16.08-2.84,22.84l-159.52,92.1C1851,690.69,1833.33,691.42,1823.19,685.57Z" transform="translate(-49.83 -52.61)" style="fill:#a3e5df"/><path d="M2022.27,580.61l-159.52,92.1c-11.71,6.76-29.42,7.5-39.56,1.64L1658,579a15.41,15.41,0,0,1-5.06-4.49c-3.48,5.61-1.9,11.69,5.06,15.71l165.21,95.38c10.14,5.85,27.85,5.12,39.56-1.64l159.52-92.1c9.1-5.25,11.86-12.59,7.9-18.35A22.1,22.1,0,0,1,2022.27,580.61Z" transform="translate(-49.83 -52.61)" style="fill:#fff"/><path d="M1971.14,651.64a14.76,14.76,0,0,1-6.67,11.55c-3.69,2.13-6.68.41-6.68-3.85a14.74,14.74,0,0,1,6.68-11.56C1968.15,645.66,1971.14,647.38,1971.14,651.64Z" transform="translate(-49.83 -52.61)" style="fill:#a3e5df"/><path d="M1992.61,639.24a14.76,14.76,0,0,1-6.67,11.56c-3.69,2.12-6.68.4-6.68-3.86a14.74,14.74,0,0,1,6.68-11.55C1989.62,633.26,1992.61,635,1992.61,639.24Z" transform="translate(-49.83 -52.61)" style="fill:#a3e5df"/><path d="M2014.08,626.84a14.74,14.74,0,0,1-6.68,11.56c-3.68,2.13-6.67.4-6.67-3.85A14.76,14.76,0,0,1,2007.4,623C2011.09,620.86,2014.08,622.59,2014.08,626.84Z" transform="translate(-49.83 -52.61)" style="fill:#a3e5df"/><path d="M1833,626.43l-77.31-44.63c-4.74-2.74-4.15-7.53,1.33-10.69l74.65-43.1c5.48-3.16,13.76-3.5,18.51-.76l77.31,44.63c4.74,2.74,4.15,7.52-1.33,10.69l-74.65,43.1C1846,628.83,1837.7,629.17,1833,626.43Z" transform="translate(-49.83 -52.61)" style="fill:#337267"/><path d="M1840.36,589.06l-10.7-6.17c-.65-.38-.57-1,.19-1.48l10.33-6a2.86,2.86,0,0,1,2.56-.1l10.69,6.17c.66.38.58,1-.18,1.48l-10.33,6A2.86,2.86,0,0,1,1840.36,589.06Z" transform="translate(-49.83 -52.61)" style="fill:#fff"/><path d="M1755.65,581.8l.22.13a12,12,0,0,1,1.11-.77l74.65-43.1c5.48-3.16,13.76-3.5,18.51-.76l77.09,44.5c4.37-3.13,4.6-7.39.22-9.92l-77.31-44.63c-4.75-2.74-13-2.4-18.51.76L1757,571.11C1751.5,574.27,1750.91,579.06,1755.65,581.8Z" transform="translate(-49.83 -52.61)" style="fill:#379989"/></svg>