<svg id="Layer_1" data-name="Layer 1" xmlns="http://www.w3.org/2000/svg" width="1952.9" height="1451.49" viewBox="0 0 1952.9 1451.49"><title>image3</title><polygon points="432.85 450.38 420.65 422.78 408.62 427.48 412.8 448.23 406.08 447.82 419.4 470.16 432.56 466.96 432.85 450.38" style="fill:#d88270"/><polygon points="341.82 663.69 434.25 597.82 412.35 464.11 438.79 459.09 499.63 611.22 368.67 727.27 341.82 663.69" style="fill:#00afa9"/><path d="M1708.18,225.11V212.86l-5.67-11.53a3.93,3.93,0,0,0-5.68.12l-4.75,11.41v12.25c-4.47,0-11.75,3.48-11.75,7.77a7.94,7.94,0,0,0,8.09,7.78h3.66v414.9c0,23.4-12.45,42.88-30.33,42.46-13.85-.33-25.94-12-28-31.15a8.48,8.48,0,0,0-8.52-7.49h-.32a8.34,8.34,0,0,0-8.5,9.18c3.54,27.19,25.24,46.64,45.84,46.64,16.1,0,29.3-7.42,37-20.79,9.52-16.55,8.91-34.75,8.91-52.91V240.66h2.5a7.94,7.94,0,0,0,8.1-7.78C1718.78,228.59,1712.65,225.11,1708.18,225.11Z" transform="translate(-48.79 -101.53)" style="fill:#303030"/><polygon points="1659.38 356.16 1643.12 339.35 1643.12 311.58 1659.38 311.58 1659.38 356.16" style="opacity:0.26"/><path d="M1595.49,453.11l2.5-15.28a358,358,0,0,1,59.89-147.33l38.89-55.67a252.66,252.66,0,0,0-215.61,139.66,248.38,248.38,0,0,0-24,79c20.49-6.09,44.22-9.59,69.61-9.59A251.75,251.75,0,0,1,1595.49,453.11Z" transform="translate(-48.79 -101.53)" style="fill:#33435a"/><path d="M1798.9,422.38l6.67,32.81h2.49c21.67-7.13,47.33-11.27,75-11.27s53.37,4.11,75.29,11.19a248.6,248.6,0,0,0-34.22-98.83,252.69,252.69,0,0,0-216.46-121.69c-2.71,0-5.4,0-8.09.14l31.07,45.16C1768.71,326.47,1786.2,373.65,1798.9,422.38Z" transform="translate(-48.79 -101.53)" style="fill:#33435a"/><path d="M1598,437.83l-2.5,15.28.67.19c26.22-11.59,62.15-18.23,101.84-18.23,41.78,0,79.5,7.37,106.08,20.12h1.49l-6.67-32.81c-12.7-48.73-30.19-95.91-68.28-142.49l-31.07-45.16-2.78.1-38.89,55.67A358,358,0,0,0,1598,437.83Z" transform="translate(-48.79 -101.53)" style="fill:#6ecec9"/><polygon points="1280.81 688.74 1268.13 676.77 1267.93 661.39 1264.65 659.78 1262.5 663.74 1258.68 651.02 1249.7 645.05 1236.3 650.15 1228.61 662.81 1235.08 675.59 1249.34 684.89 1266 702.03 1280.81 688.74" style="fill:#00afa9"/><polygon points="1279.59 674.31 1256.77 701.34 1317.98 794.31 1340.76 801.66 1437.79 724.28 1411.84 671.3 1339.47 732.8 1279.59 674.31" style="fill:#00afa9"/><polygon points="1587.5 1404.25 1590.88 1419.79 1564.04 1441.93 1545.53 1429.68 1557.26 1410.84 1584.11 1388.71 1587.5 1404.25" style="fill:#202a38"/><polygon points="1493.59 926.33 1523.56 995.42 1526.38 1189.81 1587.99 1398.9 1559.34 1411.6 1433.63 1168.82 1419.32 1091.92 1413.63 929.96 1493.59 926.33" style="fill:#33435a"/><polygon points="1348.53 941.81 1346.18 1145.53 1384.57 1408.19 1414.08 1408.19 1432.73 1165.83 1473.12 923.47 1348.53 941.81" style="fill:#33435a"/><polygon points="1413.91 1404.68 1413.91 1420.64 1381.99 1436.6 1366.03 1420.64 1381.99 1404.68 1413.91 1404.68" style="fill:#202a38"/><path d="M1455.45,767.49l78.42-2.91s46.9,41.16,71.15,148.11c24.68,108.9-4.56,265.68-4.56,265.68s-210.37-28-244.86-32.37l52.62-215Z" transform="translate(-48.79 -101.53)" style="fill:#00afa9"/><path d="M1483.55,775.5l27.47-2.69a138.82,138.82,0,0,0-1.45-21.94c7.63-2.67,16.45-6.68,17.79-14.66a22.35,22.35,0,0,0-.44-7.59q-2.65-15.57-5.33-31.15c-.62-3.59-1.27-7.28-3.22-10.36-3.42-5.4-10.07-7.77-16.36-8.88-16.07-2.81-33.59.65-46.06,11.16-3.32,2.8-6.33,6.16-7.79,10.25-2.27,6.3-.59,13.25,1.1,19.73l4.68,17.93c1.8,6.88,4.39,14.69,11,17.28,3.52,1.37,7.67,1,10.85,3C1481.41,761.17,1480.64,769.51,1483.55,775.5Z" transform="translate(-48.79 -101.53)" style="fill:#f9d1b8"/><path d="M1394.1,671.74a88.35,88.35,0,0,1,2.24-20.81c2.44-11.15,15.6-16.16,27-16.95,24.59-1.71,48.33-12.86,72.35-4.25,13.73,4.92,32.17,6.1,44.6,13a36.61,36.61,0,0,1,12.55,12.41c11.16,17.29,11.19,41.12.07,58.45a79.4,79.4,0,0,1-8.62,10.83c-6.49,7-14.25,15.69-23.17,18.28-.2-8,7.1-33.11,1-39.66-9.7-10.38-31.69-6.8-43.75-4.26-13.15,2.77-24.89,12.07-37.93,14-9.39,1.42-21.36-3.2-29.33-8.06C1398.59,697.19,1394.42,684.6,1394.1,671.74Z" transform="translate(-48.79 -101.53)" style="fill:#33435a"/><path d="M1477.08,777.18l-82.43,329.73-6.76,43.24,102.71,13.51s-4.06-157.89-2.71-178.94,16.59-66.59,18.92-115.65c1.35-28.38,10.37-79.35,4.06-95.94Z" transform="translate(-48.79 -101.53)" style="fill:#fff"/><polygon points="1662.91 493.2 1658.96 462.71 1671.91 460.45 1679.25 480.73 1684.88 476.82 1685.08 503.32 1671.93 507.48 1662.91 493.2" style="fill:#f9d1b8"/><polygon points="1855.38 654.68 1739.62 622.33 1688.02 494.32 1662.35 503.92 1689.77 668.56 1822.5 739.98 1855.38 654.68" style="fill:#cad2d9"/><polygon points="1831.76 964.6 1831.56 1005.45 1776.23 1182.23 1788.96 1366.14 1754.88 1372.79 1701.49 1147.82 1703.9 1081.72 1729.71 947.01 1831.76 964.6" style="fill:#00afa9"/><polygon points="1788.32 1012.76 1841.23 1387.54 1866.11 1387.66 1882.82 1183.46 1917.86 979.35 1788.32 1012.76" style="fill:#00afa9"/><polygon points="1760.49 1377.49 1734.37 1404.87 1741.81 1418.85 1795.56 1393.37 1785.78 1372.94 1760.49 1377.49" style="fill:#00afa9"/><polygon points="1841.65 1396.27 1809.52 1416.26 1813.23 1431.65 1871.64 1420.41 1867.28 1398.19 1841.65 1396.27" style="fill:#00afa9"/><path d="M1807.48,656.32c22,1.73,42.77-16.29,64.47-11.69,14.11,3,25.19,15.58,29.43,29.71,2,6.59,2.66,13.77.66,20.3a34,34,0,0,1-6.45,11.44,48.19,48.19,0,0,1-13.32,11.16,86.64,86.64,0,0,0,9.39,12.58l-30.59,11.54-6.66-17.57a46.75,46.75,0,0,1-9.09-1.43c-18-4.77-33-20.67-36.89-39.35C1806.59,674.27,1807,665.23,1807.48,656.32Z" transform="translate(-48.79 -101.53)" style="fill:#f9d1b8"/><polygon points="1764.22 561.48 1832.49 553.7 1845.48 605.88 1864.82 590.69 1855.31 505.36 1759.03 502.82 1717.21 527.07 1718.86 551.59 1756.02 576.87 1764.22 561.48" style="fill:#33435a"/><path d="M1839.08,749.32l81.2-31.75s37.47,80.18,69.65,194.94-11.9,273.68-11.9,273.68-225.76-47.23-262.8-54.68l74.25-228.84Z" transform="translate(-48.79 -101.53)" style="fill:#cad2d9"/><polygon points="1638.96 508.57 1637.07 477.89 1650.15 476.51 1656.1 497.24 1661.98 493.71 1660.4 520.17 1647 523.44 1638.96 508.57" style="fill:#f9d1b8"/><polygon points="1820.11 682.67 1706.79 642.59 1663.94 511.39 1637.68 519.24 1653.93 685.35 1781.56 765.56 1820.11 682.67" style="fill:#cad2d9"/><path d="M1441.28,199.78c-222.56,29.69-325.39-80.91-339.15-97.12,0,0-.18-1.52-.81-1-.53-.65-1,.83-1,.83C1084.18,116.31,964.94,209,750,144c0,0-65.36,390.81,49.18,561.65,122.34,182.47,233.09,243.6,233.7,243.2.54.49,120.58-41,269.71-202.54C1442.12,595.14,1441.28,199.78,1441.28,199.78Z" transform="translate(-48.79 -101.53)" style="fill:#00afa9"/><path d="M1406,237.68c-201.9,26.12-295.35-72.49-307.85-87,0,0-.17-1.35-.74-.86-.49-.58-.87.73-.87.73-14.66,12.26-122.73,94.6-317.81,36.42,0,0-58.77,347.88,45.39,500.15,111.25,162.64,211,226.58,211.51,226.23.49.44,110.21-45.71,245.3-189.33C1407.32,589.69,1406,237.68,1406,237.68Z" transform="translate(-48.79 -101.53)" style="fill:#6ecec9"/><path d="M1091.43,203.12s.41-1.37.91-.77c.6-.51.78.91.78.91,12.84,14.84,107.21,114.42,310.23,92.49,1.92-35.78,1.83-58.28,1.83-58.28-201.89,26.12-295.34-72.49-307.85-86.95,0,0-.16-1.35-.73-.86-.49-.58-.87.73-.87.73C1081.07,162.65,973,245,777.91,186.81c0,0-3.74,22.18-7.67,57.79C967.2,298.89,1076.37,215.72,1091.43,203.12Z" transform="translate(-48.79 -101.53)" style="fill:#007b68;opacity:0.21"/><path d="M1339.3,330.28c-152.59,20.35-240.65-60.51-250.08-71.62,0,0-.13-1.05-.56-.67-.37-.44-.66.57-.66.57-11.09,9.46-110,75-257.37,30.44,0,0-27.63,265.91,50.9,383,83.87,125.1,159.8,167,160.22,166.74.37.34,82.67-28.11,184.91-138.86C1322.31,596.3,1339.3,330.28,1339.3,330.28Z" transform="translate(-48.79 -101.53)" style="fill:#d5f1f0"/><polygon points="613.16 1418.67 612.72 1423.23 611.27 1438.37 580.63 1451.49 567.49 1435.36 583.54 1421.22 585.02 1420.59 585.2 1422.47 613.16 1418.67" style="fill:#202a38"/><path d="M663.51,1520l-1.56.21,1-10.57-29.16,12.49-24.26-255.49-3-12.07c22.92.33,50.16.67,77.61.89Z" transform="translate(-48.79 -101.53)" style="fill:#33435a"/><polygon points="613.16 1418.67 585.2 1422.47 585.02 1420.59 614.18 1408.1 613.16 1418.67" style="fill:#8f9498"/><path d="M786,1255.32l-5.64,66.87-56.56,173.39-27.64-3.67-.45,3.39-.16,0L716,1316.59l-17.44-61C730.59,1255.75,762,1255.74,786,1255.32Z" transform="translate(-48.79 -101.53)" style="fill:#33435a"/><polygon points="675.03 1394.05 676.77 1394.29 689.42 1411.64 672.68 1425.08 645.35 1405.78 646.95 1393.77 673.96 1397.36 675.03 1394.05" style="fill:#202a38"/><polygon points="675.03 1394.05 673.96 1397.36 646.95 1393.77 647.4 1390.38 675.03 1394.05" style="fill:#3c3b38"/><path d="M668.09,874.76c-3.36-8.37-9.55-29.36-9.72-38.38-.28-14.53.84-17.55,9.52-37.59,0-.06-.13,0-.2,0a23.23,23.23,0,0,0,.79-5.38c.19-9.83-7.13-17.93-11.86-26.56-.45-.8-.86-1.65-1.25-2.54a46.16,46.16,0,0,1-2.42-7.21l2.06,1a33,33,0,0,0,16.2,7.72l56.74,27,22.76,92.65,15.61,63.54C728.76,1017.25,674.53,890.81,668.09,874.76Z" transform="translate(-48.79 -101.53)" style="fill:#cad2d9"/><path d="M594.35,866.46c-3.55,16.74-16.79,29-29.72,40.63a704.52,704.52,0,0,1,29-64.66C595.29,850.43,596.06,858.43,594.35,866.46Z" transform="translate(-48.79 -101.53)" style="fill:#d1cfd1"/><path d="M555.36,989.26c10.6,5.66,22.89,7.45,34.92,7.43,9.62,0,19.38-1.11,28.78.95s18.71,8.18,21.09,17.51c1.31,5.14.88,11.61,5.33,14.51,2.08,1.36,4.72,1.48,7.21,1.55,7.61.21,16.26,0,21.38-5.63,7.91-8.74,3.29-26.27,14-31.24,3.13-1.46,6.75-1.23,10.16-1.81,14.47-2.44,21.54-18.81,20.15-33.84,4.93,4.3,10.43,8.1,16.83,8.23,7.37.15,13.82-4.62,19.62-9.16,3.76-3,7.61-5.85,11.51-8.7l.23.94,58.68,303.55c-7,.89-21,1.45-39.2,1.77l-43.85.35h-27.4l-16.27-.12-14.33-.1-32.47-.31-25.53-.58H606.57c-35.15-.52-60.14-1-60.14-1S525.08,1096.67,544,980.72A45.81,45.81,0,0,0,555.36,989.26Z" transform="translate(-48.79 -101.53)" style="fill:#cad2d9"/><path d="M874.33,823.89c.87-3.78,20.7-24,21.86-21.19a50.84,50.84,0,0,1,2.45,9.51c8.08-4.33,27.63-21.26,26.45-1.7-.51,8.48-15.38,23.13-22.82,25.7l-.51.17-27.31-4.76A13.84,13.84,0,0,1,874.33,823.89Z" transform="translate(-48.79 -101.53)" style="fill:#e8d0b4"/><path d="M874.1,831.56l.35.06c2.78.49,7,1.21,11.1,1.94,7,.79,9.52,1.66,16.21,2.82l7.1,1.24C872.6,884.39,815,913.4,766.32,949.06l-15.61-63.54Z" transform="translate(-48.79 -101.53)" style="fill:#cad2d9"/><path d="M671.21,765.83a33,33,0,0,1-16.2-7.72Z" transform="translate(-48.79 -101.53)" style="fill:#f4b6a8"/><path d="M658.47,697.54c4.64-8.4,5.75-13.49,16-18.48,0,0,5.81-3.9,21.45-1.92a9.24,9.24,0,0,0,3.21-1.42c2.76-1.72,5.23-6.22,6.52-9.89,7.16,4.53,12.37,12.7,13.8,25.15,1.56,13.54,1.54,27.82-3.1,41.36S701.86,758.62,689,763.65c-.74.29-17.8,8.65-36.06-6.52C645.25,743.2,654.42,704.88,658.47,697.54Z" transform="translate(-48.79 -101.53)" style="fill:#f4b6a8"/><path d="M534,961.73a36.48,36.48,0,0,0,10,19c.4-2.48.83-5,1.27-7.39-.44,2.44-.86,4.91-1.27,7.39a45.81,45.81,0,0,0,11.32,8.54c10.6,5.66,22.89,7.45,34.92,7.43,9.62,0,19.38-1.11,28.78.95s18.71,8.18,21.09,17.51c1.31,5.14.88,11.61,5.33,14.51,2.09,1.36,4.72,1.48,7.21,1.55,7.61.21,16.26,0,21.37-5.63,7.92-8.74,3.3-26.27,14-31.24,3.13-1.46,6.75-1.23,10.16-1.81,14.47-2.44,21.54-18.81,20.15-33.84a36.81,36.81,0,0,0-2-9c-6-16.68-19.83-29-30.32-43.33-20.48-27.87-34.33-65.11-21.73-98.09a92.57,92.57,0,0,0,3.34-9.42,23.23,23.23,0,0,0,.79-5.38c.19-9.83-7.13-17.93-11.86-26.56-.45-.8-.86-1.65-1.25-2.54a46.16,46.16,0,0,1-2.42-7.21c-.09-.39-.19-.78-.28-1.18-14.53-14.49-20.35-41.4-10.79-61.52.55-1.14,1.12-2.26,1.73-3.35-.61,1.09-1.18,2.21-1.73,3.35-9.56,20.12-3.74,47,10.79,61.52-5.32-23,.44-59.45,15.85-73,6.06-5.34,13-6.31,20.7-6.37,3.64,0,4.86.92,6.75.59a9.24,9.24,0,0,0,3.21-1.42c2.76-1.72,5.23-6.22,6.52-9.89,7.16,4.53,12.37,12.7,13.8,25.15,1.56,13.54,1.54,27.82-3.1,41.36S701.86,758.62,689,763.65c-.74.29-1.49.55-2.23.79a18.31,18.31,0,0,0,2.5,3.46c7,7.74,18.32,9.53,28.69,10.87a7.66,7.66,0,0,0,3.75-.14c1.95-.76,2.95-3,3-5.1a22.41,22.41,0,0,0-1.31-6.1c-6-21,4.65-44.95,6.43-66.1s-2.58-44.09-19.53-58.37a45,45,0,0,0-8.33,3.21c-.27-.36-.54-.7-.82-1-24.53-29.46-59.17-4.28-77.8,18.22-15.36,18.54-28.17,39.83-34,63.36-5.49,22-7.32,54.35-5,76.84,1.36,13.13,6.55,26,9.3,38.88,1.7,8,2.47,16,.76,24-3.55,16.74-16.79,29-29.72,40.63q-1.77,4.53-3.52,9.18t-3.47,9.45q-1.11,3.09-2.15,6.28,1-3.19,2.15-6.28,1.73-4.79,3.47-9.45t3.52-9.18c-1.79,1.61-3.57,3.2-5.32,4.79C544.9,925,530.74,942.54,534,961.73ZM663,670.16a57.77,57.77,0,0,1,5.86-3.4A57.77,57.77,0,0,0,663,670.16Z" transform="translate(-48.79 -101.53)" style="fill:#33435a"/><polygon points="424.11 499.04 82.08 539.28 54.23 302.61 214.23 188.88 396.26 262.37 424.11 499.04" style="fill:#d5f1f0"/><path d="M495.71,368.22l-77.49-36.39L292.92,273c-10.09-4.74-20.12-9.81-30.32-14.24-6.46-2.81-12.56-1.85-18,2.5-3.44,2.78-6.8,5.7-10.2,8.54L136,352.14C109.37,374.41,82.37,396.23,56.08,419c-.44.38-.88.74-1.33,1.11-6.67,5.58-8,16.83-2.77,24.44s15.27,9.34,22,3.74l64.79-54.2,102.78-86q8.31-6.94,16.61-13.9l70.25,33L454.67,386.5l28.91,13.58c7.86,3.69,17.17,0,20.5-8.73C507.31,382.87,503.6,371.92,495.71,368.22Z" transform="translate(-48.79 -101.53)" style="fill:#061f26"/><rect x="210.86" y="459.58" width="83.97" height="159.19" transform="translate(-110.06 -68.29) rotate(-6.71)" style="fill:#cad2d9"/><path d="M1388.2,883.73c-34.27-3.38-77.76,14.19-88.57,43.31-9.8-29.48-62.13-48.41-96.5-46.21-90.68,5.82-123.07,106.27-85.85,174.84,20,36.91,49.18,69.37,81.08,98.63,26.72,24.49,95.82,76.66,96,76.49.21.18,71.07-49.58,98.61-73.14,32.89-28.13,63.14-59.58,84.43-95.77C1517,994.63,1478.62,892.67,1388.2,883.73Z" transform="translate(-48.79 -101.53)" style="fill:#f24d4d"/><polygon points="1324.15 926.48 1267.96 926.48 1267.96 870.3 1229.53 870.3 1229.53 926.48 1173.35 926.48 1173.35 964.91 1229.53 964.91 1229.53 1021.1 1267.96 1021.1 1267.96 964.91 1324.15 964.91 1324.15 926.48" style="fill:#fff"/><polygon points="1422.42 880.22 1408.17 893.19 1391.21 892.12 1389.15 895.6 1393.34 898.29 1379 901.44 1371.67 910.82 1376.16 926.02 1389.46 935.55 1404.08 929.5 1415.53 914.57 1435.81 897.66 1422.42 880.22" style="fill:#f9d1b8"/><path d="M1457.56,989.44l69.34-54.06c6.22-4.85,13.3-8.54,19.49-13.44,9.07-7.17,11.46-9.32,8.41-19.71-8.84-30.11-27.6-56.92-36.14-86.66,9.77-5.73,18.53-12.71,29-17.39,17.17-7.64,21.1,4.78,28.08,17.41,8.29,15,16.14,30.23,23.41,45.73,6,12.85,36,66.78,19,79.59-12.19,9.23-145.55,79.52-144.2,82.3C1473.45,1022.09,1457.56,989.44,1457.56,989.44Z" transform="translate(-48.79 -101.53)" style="fill:#00afa9"/><polygon points="96.17 514.8 91.75 484.95 104.42 482.5 111.98 502.27 117.44 498.33 118.11 524.34 105.27 528.66 96.17 514.8" style="fill:#d88270"/><polygon points="287.93 669.91 173.73 640.2 120.83 515.46 95.8 525.34 125.61 686.45 257.16 754.21 287.93 669.91" style="fill:#00afa9"/><polygon points="184.87 1415.15 183.35 1430.11 211.75 1448.11 228.22 1434.67 214.79 1418.19 186.39 1400.19 184.87 1415.15" style="fill:#202a38"/><polygon points="183.77 958.84 179.15 1004.26 219.72 1207.28 183.79 1410.17 212.86 1419.12 306.85 1177.89 312.01 1104.14 299.28 951.37 183.77 958.84" style="fill:#33435a"/><polygon points="404.07 974.3 405 1166.22 367.18 1413.41 339.37 1413.22 323.34 1184.8 286.82 956.23 404.07 974.3" style="fill:#33435a"/><polygon points="339.45 1424.95 369.42 1440.19 384.56 1425.25 369.62 1410.12 339.55 1409.92 339.45 1424.95" style="fill:#202a38"/><path d="M476.3,1047.66c-20.06-62.14-22.2-127.39-28-192.12-1.73-19.1-3.56-38.62-11.51-56.07-9.13-20-24.23-30.62-41.81-36.4-22.38-7.35-48.79-6.93-72.06-8.35C300.81,754,281.27,837,258.75,877.26c-13.8,24.65-28,46.46-37.33,73.36-8.93,25.81-17.51,52.08-22.71,78.93-7.85,40.55-27.92,68.87-8.75,82.66,1.75.58,3.45,1.16,5,1.73a471.06,471.06,0,0,0,97.12,24,388.67,388.67,0,0,0,88.76,1.68c40.4-4,79.54-9.69,115.15-30.76Z" transform="translate(-48.79 -101.53)" style="fill:#00afa9"/><path d="M312.08,693c12.58-38,68-51.19,80.88-7.06,3.87,13.26,6.2,27.33,3.56,40.89S385.6,753.35,373,758.91l-.22.09q.74,5.28,1.48,10.56a3.15,3.15,0,0,1-.23,2.23,3.19,3.19,0,0,1-2.3,1l-12.61,1.88a13.92,13.92,0,0,1-6.26,0c-4.38-1.41-6.21-6.67-6.4-11.27-.05-1.1,0-2.22,0-3.33C321.53,751.56,303.86,717.77,312.08,693Z" transform="translate(-48.79 -101.53)" style="fill:#d88270"/><path d="M379.59,628.11c10.15-1.51,18.79,8.33,28.15,13.5,7.79,4.3,16.62,5.44,24.69,9s16,11,16.18,20.3c8.18-4.25,17-8.62,26.21-6.85s17.67,12.71,14,21.73c-3.27,8.08-13.81,10-17.31,17.93-5.55,12.58,9.45,32.11-.79,40.45-2.46,2-5.8,2.49-8.22,4.56-3,2.56-4,7-5.3,10.88-6.06,17.75-24,29.35-41.63,27-11-5.15-19.75-15.79-23.67-28-4.73-14.68,3.12-19.8,4.44-33.58a60,60,0,0,0-12.82-42.69c-6.17-7.61-15-14.17-24.32-15.06-3.79-.36-2.6,2.8-6.86-.13-1.84-1.26-4.33-6-4.85-8.31C357.71,650.66,366.24,630.1,379.59,628.11Z" transform="translate(-48.79 -101.53)" style="fill:#33435a"/><path d="M269.86,647.63c-5.24,1.46-10.92,1.25-15.91,3.43-7.49,3.29-7,11.06-9.16,17.82-2.34,7.47-5.76,17.51-10.69,23.32-3.55,4.2-8.52,6.58-12.85,9.82s-8.31,8-8.22,13.83c.09,5.53,3.8,10.48,4.34,16,.66,8.22-.76,12.43,1.78,20.84,1.31,4.33,2.77,8.93,6,11.88,4.29,3.9,10.4,3.82,15.77,2.93s10.91-2.39,16.2-.61c11.47,3.86,9.33,15.47,12.39,25.19,4.64,14.8,21.81,23.44,34.94,18.18,11.13-4.46,17.57-17.39,17.07-30.15-.25-6.39-2.8-12.34-3-18.74-.18-6.16,3.3-14.7-2.29-19.6-1.36-1.19-3.11-1.82-4.33-3.18a9,9,0,0,1-1.88-4A17.75,17.75,0,0,1,313,720c2.16-2.8,5.26-4.85,6.58-8.23,1.52-3.88.32-8.41.06-12.7-.62-10.35,5-20.51,13.67-24.51,5.69-2.64,10.81-4.19,15.78-8.2.75-.61,12.06-10.6,12.35-8.44-.51-3.76-2.7-7-4.92-10.06-3.66-5-7.71-9.79-12.86-12.76-16.64-9.6-17.44,12.71-30.8,9.78-3.23-.71-5.65-3.66-8.55-5.43-5.48-3.33-12.21-2.14-17.81.36S275.75,646,269.86,647.63Z" transform="translate(-48.79 -101.53)" style="fill:#33435a"/></svg>